<svg xmlns="http://www.w3.org/2000/svg" xmlns:xlink="http://www.w3.org/1999/xlink" width="397" zoomAndPan="magnify" viewBox="0 0 297.75 419.249996" height="559" preserveAspectRatio="xMidYMid meet" version="1.0"><defs><clipPath id="252abb1018"><path d="M 0.117188 0.449219 L 224.835938 0.449219 L 224.835938 77.644531 L 0.117188 77.644531 Z M 0.117188 0.449219 " clip-rule="nonzero"/></clipPath><clipPath id="9ef1cf1258"><rect x="0" width="225" y="0" height="79"/></clipPath></defs><g transform="matrix(1, 0, 0, 1, 35, 173)"><g clip-path="url(#9ef1cf1258)"><g clip-path="url(#252abb1018)"><path fill="#b7b3e9" d="M 224.425781 5.574219 C 223.816406 5.277344 211.1875 7.035156 206.082031 11.269531 C 200.039062 16.277344 196.339844 24.628906 195.882812 25.691406 C 193.976562 26.769531 192.019531 27.757812 190.03125 28.695312 C 191.777344 27.164062 193.546875 25.222656 194.886719 22.828125 C 197.769531 17.675781 198.804688 11.25 199.300781 8.164062 C 199.421875 7.429688 199.542969 6.671875 199.589844 6.542969 C 199.765625 6.242188 199.667969 5.808594 199.371094 5.628906 C 198.246094 4.957031 189.460938 11.644531 186.613281 16.375 C 183.621094 21.351562 182.769531 29.953125 182.609375 31.972656 C 180.144531 33 177.65625 33.980469 175.15625 34.914062 C 176.679688 33.675781 178.15625 32.128906 179.101562 30.28125 C 181.757812 25.105469 181.046875 13.917969 181.015625 13.445312 C 181 13.210938 180.855469 13.003906 180.636719 12.910156 C 180.417969 12.8125 180.167969 12.851562 179.984375 13.003906 C 179.722656 13.222656 173.484375 18.429688 171.160156 24.214844 C 170.144531 26.738281 169.5 29.304688 169.085938 31.527344 C 169.054688 31.445312 169.015625 31.367188 168.964844 31.289062 C 168.433594 30.484375 167.328125 30.359375 165.59375 30.90625 C 165.136719 31.050781 164.6875 31.253906 164.273438 31.464844 C 164.707031 30.640625 164.949219 30.035156 165.050781 29.753906 C 165.542969 29.484375 166.976562 28.601562 167.816406 26.953125 C 168.542969 25.527344 168.75 24.285156 168.40625 23.453125 C 168.21875 23.003906 167.878906 22.6875 167.425781 22.542969 C 167.015625 22.410156 166.578125 22.460938 166.164062 22.691406 C 165.375 23.128906 164.683594 24.195312 164.359375 25.472656 C 163.988281 26.945312 164.164062 28.910156 164.214844 29.382812 C 164.136719 29.59375 163.898438 30.203125 163.4375 31.058594 C 163.414062 30.574219 163.363281 30.050781 163.253906 29.554688 C 162.863281 27.777344 162.203125 26.882812 161.238281 26.828125 C 160.828125 26.800781 160.484375 26.964844 160.25 27.289062 C 159.796875 27.910156 159.828125 29.0625 160.339844 30.371094 C 160.832031 31.636719 161.777344 32.480469 162.316406 32.886719 C 161.792969 33.648438 161.140625 34.484375 160.339844 35.355469 C 160.402344 34.804688 160.4375 34.167969 160.386719 33.566406 C 160.238281 31.753906 159.707031 30.78125 158.757812 30.589844 C 158.359375 30.515625 157.988281 30.628906 157.714844 30.917969 C 157.179688 31.472656 157.058594 32.617188 157.390625 33.980469 C 157.4375 34.179688 157.503906 34.363281 157.574219 34.539062 C 156.773438 34.46875 155.90625 34.574219 155.09375 34.75 C 156.097656 33.4375 156.6875 32.125 157.125 31.140625 C 157.300781 30.742188 157.457031 30.390625 157.613281 30.101562 C 158.101562 29.199219 158.007812 28.144531 157.640625 27.089844 C 157.996094 26.570312 158.339844 26.054688 158.667969 25.554688 C 158.671875 25.550781 158.671875 25.550781 158.675781 25.550781 C 160.902344 21.886719 164.183594 20.582031 166.417969 20.117188 C 166.480469 20.296875 166.558594 20.472656 166.664062 20.640625 C 167.03125 21.234375 167.613281 21.652344 168.296875 21.8125 C 168.496094 21.859375 168.699219 21.882812 168.902344 21.882812 C 169.382812 21.882812 169.859375 21.75 170.28125 21.488281 C 170.878906 21.117188 171.292969 20.539062 171.453125 19.855469 C 171.785156 18.445312 170.90625 17.027344 169.496094 16.695312 C 168.8125 16.535156 168.109375 16.652344 167.511719 17.019531 C 166.914062 17.390625 166.496094 17.972656 166.335938 18.65625 C 166.320312 18.730469 166.316406 18.808594 166.308594 18.882812 C 164.964844 19.148438 163.273438 19.699219 161.601562 20.785156 C 162.21875 19.699219 162.769531 18.675781 163.253906 17.71875 C 165.28125 15.183594 167.5 13.554688 169.097656 12.601562 C 169.234375 12.765625 169.386719 12.917969 169.566406 13.046875 C 170.015625 13.371094 170.546875 13.539062 171.089844 13.539062 C 171.234375 13.539062 171.378906 13.527344 171.523438 13.503906 C 172.214844 13.390625 172.824219 13.011719 173.230469 12.441406 C 173.640625 11.871094 173.800781 11.175781 173.6875 10.484375 C 173.574219 9.789062 173.195312 9.183594 172.625 8.773438 C 172.054688 8.367188 171.363281 8.207031 170.667969 8.316406 C 169.976562 8.433594 169.367188 8.808594 168.960938 9.378906 C 168.550781 9.949219 168.386719 10.644531 168.503906 11.339844 C 168.511719 11.390625 168.53125 11.441406 168.542969 11.492188 C 167.503906 12.105469 166.210938 12.996094 164.863281 14.21875 C 165.816406 11.910156 166.328125 10.125 166.601562 8.828125 C 167.304688 8.742188 167.972656 8.390625 168.414062 7.769531 C 169.257812 6.59375 168.988281 4.949219 167.808594 4.105469 C 167.238281 3.695312 166.542969 3.53125 165.851562 3.648438 C 165.160156 3.761719 164.550781 4.140625 164.144531 4.710938 C 163.300781 5.886719 163.570312 7.53125 164.746094 8.375 L 164.75 8.375 C 164.941406 8.511719 165.144531 8.613281 165.355469 8.695312 C 164.910156 10.734375 163.828125 14.109375 161.226562 18.914062 C 161.328125 15.941406 160.363281 13.519531 159.441406 11.921875 C 159.492188 11.863281 159.550781 11.808594 159.59375 11.746094 C 160.4375 10.570312 160.167969 8.925781 158.992188 8.078125 C 157.8125 7.234375 156.167969 7.507812 155.324219 8.683594 C 154.914062 9.253906 154.753906 9.949219 154.867188 10.644531 C 154.980469 11.335938 155.359375 11.941406 155.929688 12.351562 C 156.378906 12.675781 156.910156 12.84375 157.453125 12.84375 C 157.597656 12.84375 157.742188 12.832031 157.886719 12.808594 C 158.082031 12.777344 158.265625 12.71875 158.441406 12.648438 C 159.558594 14.621094 160.722656 17.925781 159.472656 21.976562 C 158.753906 23.164062 157.9375 24.4375 157.042969 25.769531 C 155.863281 23.625 153.949219 21.792969 153.917969 21.761719 C 152.5625 20.503906 149.714844 21 146.664062 21.667969 C 146.363281 21.734375 146.09375 21.792969 145.863281 21.839844 C 143.636719 22.285156 142.363281 25.15625 141.664062 27.65625 C 141.621094 27.527344 141.582031 27.394531 141.535156 27.273438 C 140.464844 24.527344 138.714844 23.644531 137.4375 23 C 137.089844 22.824219 136.761719 22.660156 136.488281 22.480469 C 134.738281 21.320312 131.15625 21.867188 129.355469 22.773438 C 127.835938 23.539062 127.152344 24.804688 126.609375 26.222656 C 124.996094 25.589844 123.535156 25.496094 122.894531 25.492188 C 122.523438 25.136719 122.144531 24.753906 121.75 24.355469 C 120.351562 22.941406 118.90625 21.480469 117.5 20.96875 C 116.207031 20.5 114.710938 21.203125 112.996094 22.074219 C 112.085938 21.742188 109.484375 20.949219 107.097656 21.609375 C 106.507812 21.773438 105.910156 21.917969 105.304688 22.0625 C 103.160156 22.585938 100.9375 23.121094 98.652344 24.554688 C 98.390625 24.714844 98.136719 24.894531 97.886719 25.082031 C 97.398438 24.140625 96.742188 23.324219 95.644531 22.773438 C 93.847656 21.871094 90.265625 21.320312 88.511719 22.480469 C 88.242188 22.660156 87.914062 22.824219 87.566406 23 C 86.285156 23.644531 84.535156 24.527344 83.46875 27.273438 C 83.421875 27.394531 83.378906 27.527344 83.335938 27.65625 C 82.636719 25.15625 81.367188 22.285156 79.140625 21.839844 C 78.910156 21.792969 78.636719 21.734375 78.339844 21.667969 C 75.289062 21 72.4375 20.507812 71.085938 21.761719 C 71.058594 21.785156 69.792969 22.996094 68.6875 24.59375 C 68.914062 24.0625 69.121094 23.527344 69.269531 22.972656 C 69.507812 22.136719 69.671875 21.285156 69.777344 20.429688 C 69.820312 20.398438 69.867188 20.375 69.902344 20.332031 C 69.933594 20.300781 69.945312 20.257812 69.96875 20.222656 C 71.15625 19.222656 75.097656 15.722656 74.523438 13.605469 C 74.160156 12.269531 73.578125 11.734375 73.152344 11.34375 C 72.882812 11.09375 72.746094 10.964844 72.660156 10.71875 C 72.625 10.613281 72.582031 10.484375 72.539062 10.347656 C 72.140625 9.121094 71.316406 6.574219 69.371094 7.027344 C 68.179688 7.3125 67.796875 8.335938 67.460938 9.238281 C 67.269531 9.75 67.074219 10.273438 66.742188 10.675781 L 66.308594 11.195312 C 64.984375 12.78125 64.1875 13.738281 64.984375 15.441406 C 65.980469 17.566406 68.144531 19.640625 68.761719 20.207031 C 68.769531 20.21875 68.773438 20.230469 68.78125 20.242188 C 68.636719 21.054688 68.429688 21.851562 68.164062 22.621094 C 67.988281 23.167969 67.753906 23.6875 67.496094 24.195312 C 67.078125 23.601562 66.667969 22.996094 66.285156 22.371094 C 65.304688 20.832031 64.433594 19.214844 63.648438 17.558594 C 63.011719 16.226562 62.457031 14.855469 61.945312 13.464844 C 61.945312 13.464844 61.945312 13.464844 61.949219 13.464844 C 61.96875 13.425781 61.96875 13.378906 61.980469 13.335938 C 62.855469 12.054688 65.699219 7.621094 64.574219 5.738281 C 63.863281 4.546875 63.15625 4.191406 62.640625 3.929688 C 62.3125 3.765625 62.148438 3.675781 62 3.460938 C 61.933594 3.367188 61.859375 3.257812 61.777344 3.136719 C 61.0625 2.0625 59.574219 -0.164062 57.832031 0.800781 C 56.765625 1.394531 56.671875 2.484375 56.59375 3.445312 C 56.546875 3.988281 56.5 4.546875 56.289062 5.023438 L 56.015625 5.640625 C 55.171875 7.527344 54.660156 8.664062 55.886719 10.085938 C 57.421875 11.863281 60.066406 13.273438 60.816406 13.652344 C 60.875 13.714844 60.945312 13.761719 61.03125 13.796875 C 61.496094 15.226562 62.015625 16.644531 62.617188 18.023438 C 63.25 19.484375 63.964844 20.914062 64.746094 22.304688 C 63.199219 22.03125 61.667969 21.445312 60.207031 20.726562 C 60.207031 20.722656 60.207031 20.722656 60.207031 20.722656 C 60.195312 20.679688 60.167969 20.644531 60.144531 20.605469 C 59.929688 19.066406 59.042969 13.875 56.941406 13.242188 C 55.617188 12.84375 54.851562 13.058594 54.292969 13.210938 C 53.941406 13.308594 53.761719 13.355469 53.507812 13.296875 C 53.394531 13.273438 53.265625 13.242188 53.125 13.203125 C 51.871094 12.894531 49.269531 12.25 48.632812 14.140625 C 48.246094 15.296875 48.910156 16.164062 49.5 16.929688 C 49.832031 17.359375 50.175781 17.808594 50.339844 18.300781 L 50.449219 18.628906 C 47.929688 15.441406 45.191406 13.144531 45.015625 13.003906 C 44.835938 12.851562 44.582031 12.816406 44.367188 12.910156 C 44.148438 13.003906 44 13.210938 43.984375 13.445312 C 43.953125 13.917969 43.246094 25.105469 45.898438 30.28125 C 46.84375 32.128906 48.320312 33.675781 49.847656 34.914062 C 47.34375 33.980469 44.859375 33 42.394531 31.96875 C 42.230469 29.953125 41.378906 21.351562 38.386719 16.375 C 35.542969 11.644531 26.75 4.953125 25.628906 5.628906 C 25.316406 5.816406 25.222656 6.214844 25.394531 6.507812 C 25.460938 6.671875 25.582031 7.429688 25.699219 8.164062 C 26.195312 11.25 27.230469 17.671875 30.117188 22.828125 C 31.453125 25.21875 33.222656 27.164062 34.972656 28.695312 C 32.984375 27.757812 31.023438 26.765625 29.117188 25.691406 C 28.664062 24.628906 24.964844 16.277344 18.917969 11.269531 C 13.8125 7.035156 1.1875 5.285156 0.574219 5.574219 C 0.351562 5.683594 0.214844 5.910156 0.21875 6.160156 C 0.222656 6.328125 0.296875 6.484375 0.414062 6.597656 C 0.5 6.710938 0.757812 7.089844 1.027344 7.488281 C 2.714844 9.984375 7.199219 16.609375 11.628906 20.4375 C 17.148438 25.214844 28.042969 26.605469 28.503906 26.664062 C 28.53125 26.667969 28.554688 26.667969 28.582031 26.667969 C 28.585938 26.667969 28.589844 26.664062 28.589844 26.664062 C 29.519531 27.210938 30.453125 27.738281 31.40625 28.234375 C 33.785156 29.472656 36.199219 30.625 38.636719 31.730469 C 35.191406 31.308594 30.667969 31.101562 26.871094 32.121094 C 19.707031 34.042969 16.445312 39.175781 16.308594 39.390625 C 16.199219 39.566406 16.183594 39.785156 16.265625 39.976562 C 16.351562 40.167969 16.519531 40.304688 16.722656 40.34375 C 16.996094 40.398438 21.769531 41.308594 26.675781 41.308594 C 28.476562 41.308594 30.296875 41.1875 31.917969 40.851562 C 36.121094 39.988281 39.507812 37.28125 41.75 35.492188 C 42.585938 34.824219 43.324219 34.238281 43.8125 33.984375 C 47.078125 35.355469 50.378906 36.652344 53.714844 37.855469 C 51.28125 37.925781 48.453125 38.398438 45.699219 39.792969 C 38.78125 43.285156 37.058594 50.023438 36.988281 50.308594 C 36.941406 50.492188 36.984375 50.691406 37.101562 50.84375 C 37.21875 50.996094 37.398438 51.085938 37.589844 51.089844 C 37.609375 51.089844 37.664062 51.089844 37.75 51.089844 C 38.546875 51.089844 42.023438 51.023438 45.863281 49.964844 C 45.867188 49.96875 45.867188 49.976562 45.871094 49.980469 C 46.007812 50.148438 49.246094 53.996094 53.203125 55.214844 C 54.261719 55.542969 55.261719 55.664062 56.164062 55.664062 C 53.59375 56.894531 52.066406 57.777344 51.691406 57.996094 C 50.980469 58.0625 47.003906 58.5 44.160156 60.65625 C 39.890625 63.886719 39.148438 68.9375 39.121094 69.148438 C 39.117188 69.160156 39.125 69.171875 39.121094 69.179688 C 39.121094 69.230469 39.125 69.277344 39.136719 69.324219 C 39.140625 69.34375 39.140625 69.359375 39.148438 69.378906 C 39.171875 69.4375 39.207031 69.496094 39.257812 69.542969 C 39.261719 69.546875 39.261719 69.546875 39.261719 69.546875 C 39.300781 69.585938 39.347656 69.613281 39.394531 69.632812 C 39.398438 69.632812 39.402344 69.636719 39.40625 69.636719 C 39.457031 69.660156 39.515625 69.671875 39.570312 69.671875 C 39.605469 69.671875 39.636719 69.667969 39.667969 69.660156 C 39.898438 69.609375 45.289062 68.417969 48.296875 65.351562 C 51.046875 62.550781 52.011719 59.53125 52.230469 58.742188 C 52.722656 58.453125 54.398438 57.5 57.148438 56.207031 C 55.933594 57.308594 54.667969 58.683594 54.054688 60.070312 C 52.71875 63.089844 52.890625 67.214844 52.898438 67.390625 C 52.898438 67.394531 52.902344 67.402344 52.902344 67.40625 C 52.910156 67.476562 52.929688 67.542969 52.964844 67.605469 C 52.972656 67.613281 52.984375 67.621094 52.992188 67.632812 C 53.015625 67.667969 53.039062 67.703125 53.078125 67.730469 C 53.089844 67.742188 53.105469 67.746094 53.117188 67.753906 C 53.125 67.757812 53.128906 67.765625 53.132812 67.769531 C 53.140625 67.773438 53.152344 67.773438 53.160156 67.777344 C 53.222656 67.804688 53.289062 67.828125 53.355469 67.828125 C 53.355469 67.828125 53.355469 67.824219 53.359375 67.824219 C 53.429688 67.824219 53.503906 67.804688 53.566406 67.769531 C 53.570312 67.769531 53.578125 67.769531 53.582031 67.765625 C 53.765625 67.660156 58.125 65.148438 60.019531 61.460938 C 61.574219 58.429688 61.132812 55.589844 60.882812 54.546875 C 62.480469 53.875 64.273438 53.160156 66.265625 52.4375 C 66.398438 52.410156 66.515625 52.378906 66.640625 52.351562 C 65.285156 53.601562 63.636719 55.371094 62.972656 57.105469 C 61.785156 60.1875 62.160156 64.304688 62.179688 64.476562 C 62.179688 64.480469 62.183594 64.488281 62.183594 64.492188 C 62.191406 64.5625 62.214844 64.625 62.253906 64.6875 C 62.261719 64.695312 62.273438 64.703125 62.28125 64.714844 C 62.308594 64.75 62.335938 64.78125 62.371094 64.808594 C 62.382812 64.816406 62.394531 64.8125 62.402344 64.820312 C 62.414062 64.824219 62.421875 64.835938 62.433594 64.84375 C 62.496094 64.875 62.5625 64.890625 62.632812 64.890625 C 62.714844 64.890625 62.789062 64.863281 62.859375 64.824219 C 62.863281 64.820312 62.871094 64.820312 62.878906 64.820312 C 63.058594 64.703125 67.285156 61.980469 68.996094 58.203125 C 70.378906 55.140625 69.832031 52.363281 69.53125 51.300781 C 69.859375 51.191406 70.210938 51.082031 70.554688 50.972656 C 69.925781 52.890625 69.71875 54.730469 70.070312 56.078125 C 70.332031 57.082031 70.890625 57.828125 71.683594 58.234375 C 73.597656 59.214844 75.570312 58.417969 77.175781 59.074219 L 77.433594 59.179688 C 77.800781 59.332031 78.222656 59.503906 78.679688 59.667969 C 77.054688 64.574219 77.851562 68.53125 77.898438 68.75 C 77.902344 68.765625 77.910156 68.777344 77.914062 68.792969 C 77.925781 68.828125 77.9375 68.855469 77.953125 68.890625 C 77.976562 68.933594 78 68.976562 78.027344 69.015625 C 78.046875 69.042969 78.070312 69.066406 78.09375 69.089844 C 78.132812 69.128906 78.175781 69.160156 78.222656 69.1875 C 78.242188 69.199219 78.25 69.214844 78.269531 69.222656 C 78.277344 69.226562 78.289062 69.226562 78.296875 69.230469 C 78.382812 69.265625 78.472656 69.292969 78.566406 69.292969 C 78.601562 69.292969 78.640625 69.289062 78.675781 69.285156 C 78.953125 69.238281 84.617188 68.292969 89.109375 64.292969 C 88.21875 71.582031 92.730469 77.457031 92.9375 77.722656 C 92.945312 77.730469 92.953125 77.730469 92.960938 77.738281 C 92.996094 77.78125 93.039062 77.8125 93.085938 77.84375 C 93.117188 77.867188 93.140625 77.890625 93.171875 77.90625 C 93.21875 77.929688 93.273438 77.941406 93.324219 77.953125 C 93.359375 77.960938 93.390625 77.980469 93.425781 77.980469 C 93.433594 77.980469 93.445312 77.980469 93.453125 77.984375 L 93.457031 77.984375 C 93.460938 77.984375 93.46875 77.984375 93.476562 77.984375 C 93.480469 77.984375 93.484375 77.980469 93.488281 77.980469 C 93.570312 77.980469 93.65625 77.964844 93.734375 77.933594 C 93.769531 77.917969 93.800781 77.890625 93.835938 77.867188 C 93.871094 77.84375 93.914062 77.828125 93.945312 77.800781 C 94.171875 77.589844 99.285156 72.703125 101.292969 63.957031 C 102.503906 64.734375 103.96875 65.363281 105.71875 65.582031 C 107.113281 65.757812 108.175781 65.828125 109.007812 65.828125 C 110.757812 65.828125 111.503906 65.515625 112.234375 65.214844 C 112.589844 65.066406 112.890625 64.941406 113.332031 64.859375 C 113.949219 64.742188 114.632812 64.859375 115.429688 64.996094 C 116.769531 65.226562 118.289062 65.488281 120.011719 64.695312 C 121.347656 64.078125 122.296875 62.804688 123.0625 61.519531 C 123.121094 61.511719 123.175781 61.496094 123.238281 61.488281 C 123.300781 61.933594 123.367188 62.378906 123.457031 62.851562 C 125.25 72.253906 130.753906 77.515625 131.046875 77.789062 C 131.046875 77.792969 131.046875 77.792969 131.046875 77.792969 C 131.050781 77.792969 131.054688 77.796875 131.058594 77.800781 C 131.085938 77.828125 131.125 77.84375 131.160156 77.867188 C 131.195312 77.886719 131.230469 77.917969 131.269531 77.933594 C 131.347656 77.964844 131.429688 77.980469 131.515625 77.980469 C 131.519531 77.980469 131.519531 77.984375 131.523438 77.984375 L 131.527344 77.984375 C 131.53125 77.984375 131.539062 77.984375 131.546875 77.984375 C 131.558594 77.980469 131.566406 77.980469 131.578125 77.980469 C 131.613281 77.980469 131.644531 77.960938 131.675781 77.953125 C 131.730469 77.941406 131.78125 77.929688 131.828125 77.90625 C 131.863281 77.890625 131.886719 77.867188 131.917969 77.84375 C 131.960938 77.8125 132.003906 77.78125 132.042969 77.738281 C 132.046875 77.730469 132.058594 77.730469 132.0625 77.722656 C 132.269531 77.457031 136.769531 71.570312 135.875 64.273438 C 140.367188 68.289062 146.046875 69.238281 146.328125 69.285156 C 146.363281 69.289062 146.398438 69.292969 146.433594 69.292969 C 146.53125 69.292969 146.617188 69.265625 146.703125 69.230469 C 146.710938 69.226562 146.722656 69.226562 146.734375 69.222656 C 146.75 69.214844 146.761719 69.199219 146.78125 69.1875 C 146.828125 69.160156 146.871094 69.128906 146.910156 69.089844 C 146.933594 69.066406 146.953125 69.042969 146.972656 69.015625 C 147.003906 68.976562 147.027344 68.933594 147.046875 68.886719 C 147.0625 68.855469 147.078125 68.828125 147.085938 68.792969 C 147.089844 68.777344 147.101562 68.765625 147.105469 68.75 C 147.152344 68.53125 147.949219 64.570312 146.328125 59.664062 C 146.78125 59.503906 147.199219 59.332031 147.570312 59.179688 L 147.824219 59.074219 C 149.429688 58.417969 151.40625 59.21875 153.316406 58.234375 C 154.113281 57.828125 154.667969 57.082031 154.929688 56.078125 C 155.285156 54.730469 155.074219 52.886719 154.449219 50.96875 C 154.789062 51.078125 155.136719 51.1875 155.472656 51.300781 C 155.167969 52.363281 154.625 55.140625 156.007812 58.203125 C 157.714844 61.980469 161.945312 64.703125 162.125 64.820312 C 162.128906 64.820312 162.136719 64.820312 162.144531 64.824219 C 162.210938 64.863281 162.289062 64.890625 162.367188 64.890625 C 162.367188 64.890625 162.367188 64.890625 162.371094 64.890625 C 162.4375 64.890625 162.507812 64.875 162.570312 64.84375 C 162.582031 64.835938 162.585938 64.824219 162.597656 64.820312 C 162.609375 64.8125 162.621094 64.816406 162.628906 64.808594 C 162.667969 64.78125 162.691406 64.75 162.71875 64.714844 C 162.730469 64.703125 162.738281 64.695312 162.746094 64.6875 C 162.785156 64.625 162.808594 64.5625 162.820312 64.492188 C 162.820312 64.488281 162.824219 64.480469 162.824219 64.476562 C 162.839844 64.304688 163.214844 60.1875 162.03125 57.105469 C 161.363281 55.371094 159.71875 53.601562 158.363281 52.351562 C 158.488281 52.378906 158.605469 52.410156 158.738281 52.4375 C 160.730469 53.160156 162.523438 53.875 164.117188 54.546875 C 163.871094 55.589844 163.429688 58.429688 164.984375 61.460938 C 166.878906 65.148438 171.234375 67.660156 171.421875 67.765625 C 171.425781 67.769531 171.429688 67.769531 171.433594 67.769531 C 171.5 67.804688 171.570312 67.824219 171.644531 67.824219 C 171.644531 67.824219 171.644531 67.828125 171.648438 67.828125 C 171.714844 67.828125 171.78125 67.804688 171.84375 67.777344 C 171.851562 67.773438 171.859375 67.773438 171.867188 67.769531 C 171.875 67.765625 171.875 67.757812 171.882812 67.753906 C 171.894531 67.746094 171.910156 67.742188 171.925781 67.730469 C 171.960938 67.703125 171.988281 67.667969 172.011719 67.632812 C 172.019531 67.621094 172.03125 67.613281 172.035156 67.605469 C 172.074219 67.542969 172.09375 67.476562 172.097656 67.40625 C 172.097656 67.402344 172.101562 67.394531 172.101562 67.390625 C 172.109375 67.214844 172.28125 63.089844 170.945312 60.070312 C 170.332031 58.683594 169.070312 57.308594 167.855469 56.207031 C 170.601562 57.5 172.277344 58.453125 172.773438 58.742188 C 172.988281 59.53125 173.957031 62.550781 176.703125 65.351562 C 179.710938 68.417969 185.105469 69.609375 185.332031 69.660156 C 185.367188 69.667969 185.398438 69.671875 185.429688 69.671875 C 185.488281 69.671875 185.542969 69.660156 185.597656 69.636719 C 185.601562 69.636719 185.601562 69.632812 185.605469 69.632812 C 185.65625 69.613281 185.699219 69.585938 185.742188 69.546875 C 185.742188 69.546875 185.742188 69.546875 185.742188 69.542969 C 185.742188 69.542969 185.746094 69.542969 185.746094 69.542969 C 185.796875 69.496094 185.828125 69.4375 185.851562 69.378906 C 185.859375 69.359375 185.859375 69.34375 185.863281 69.324219 C 185.875 69.277344 185.882812 69.230469 185.878906 69.179688 C 185.878906 69.171875 185.882812 69.160156 185.882812 69.148438 C 185.851562 68.9375 185.109375 63.886719 180.84375 60.65625 C 177.996094 58.5 174.023438 58.0625 173.3125 58 C 172.9375 57.777344 171.40625 56.894531 168.835938 55.664062 C 169.742188 55.664062 170.742188 55.542969 171.796875 55.214844 C 175.757812 53.996094 178.992188 50.148438 179.128906 49.980469 C 179.132812 49.976562 179.132812 49.96875 179.136719 49.964844 C 182.980469 51.023438 186.457031 51.089844 187.25 51.089844 C 187.335938 51.089844 187.390625 51.089844 187.414062 51.089844 C 187.605469 51.085938 187.785156 50.996094 187.902344 50.84375 C 188.019531 50.691406 188.058594 50.492188 188.015625 50.308594 C 187.945312 50.023438 186.222656 43.285156 179.300781 39.792969 C 176.546875 38.398438 173.71875 37.925781 171.289062 37.855469 C 174.625 36.652344 177.925781 35.355469 181.191406 33.984375 C 181.679688 34.238281 182.414062 34.824219 183.253906 35.492188 C 185.492188 37.28125 188.878906 39.988281 193.082031 40.851562 C 194.707031 41.1875 196.523438 41.308594 198.328125 41.308594 C 203.234375 41.308594 208.007812 40.398438 208.277344 40.34375 C 208.480469 40.304688 208.652344 40.167969 208.734375 39.976562 C 208.816406 39.785156 208.800781 39.566406 208.691406 39.390625 C 208.558594 39.175781 205.292969 34.042969 198.132812 32.121094 C 194.335938 31.101562 189.808594 31.308594 186.367188 31.730469 C 188.800781 30.625 191.21875 29.472656 193.597656 28.234375 C 194.550781 27.738281 195.484375 27.210938 196.410156 26.664062 C 196.414062 26.664062 196.417969 26.667969 196.421875 26.667969 C 196.445312 26.667969 196.472656 26.667969 196.5 26.664062 C 196.960938 26.605469 207.851562 25.214844 213.375 20.4375 C 217.800781 16.609375 222.285156 9.984375 223.972656 7.488281 C 224.246094 7.089844 224.5 6.710938 224.585938 6.597656 C 224.707031 6.484375 224.777344 6.328125 224.78125 6.160156 C 224.789062 5.910156 224.648438 5.683594 224.425781 5.574219 Z M 68.65625 17.289062 C 68.363281 16.464844 68.144531 15.585938 67.984375 14.71875 L 67.980469 14.707031 C 67.953125 14.546875 67.808594 14.429688 67.640625 14.4375 C 67.460938 14.449219 67.324219 14.601562 67.332031 14.785156 C 67.378906 15.546875 67.476562 16.300781 67.617188 17.054688 C 67.066406 16.378906 66.535156 15.625 66.1875 14.878906 C 65.761719 13.972656 66.023438 13.609375 67.328125 12.046875 L 67.765625 11.519531 C 68.238281 10.945312 68.484375 10.285156 68.703125 9.703125 C 69.039062 8.804688 69.222656 8.425781 69.675781 8.320312 C 69.710938 8.3125 69.746094 8.308594 69.78125 8.308594 C 70.480469 8.308594 71.011719 9.949219 71.277344 10.757812 C 71.324219 10.90625 71.371094 11.042969 71.410156 11.15625 C 71.609375 11.726562 71.953125 12.042969 72.253906 12.320312 C 72.628906 12.664062 72.980469 12.988281 73.242188 13.953125 C 73.421875 14.613281 72.355469 16.078125 70.917969 17.539062 C 71.136719 16.710938 71.3125 15.882812 71.457031 15.039062 C 71.484375 14.878906 71.386719 14.722656 71.226562 14.671875 C 71.054688 14.621094 70.871094 14.71875 70.820312 14.890625 L 70.816406 14.898438 C 70.570312 15.714844 70.28125 16.535156 69.957031 17.320312 C 69.953125 17.335938 69.945312 17.347656 69.9375 17.363281 C 69.9375 17.226562 69.941406 17.085938 69.9375 16.945312 C 69.890625 15.9375 69.785156 14.945312 69.582031 13.941406 C 69.546875 13.773438 69.386719 13.65625 69.214844 13.683594 C 69.035156 13.707031 68.910156 13.875 68.9375 14.054688 L 68.941406 14.070312 C 69.078125 15.007812 69.125 15.996094 69.117188 16.960938 C 69.109375 17.382812 69.085938 17.808594 69.050781 18.230469 C 68.90625 17.929688 68.773438 17.617188 68.65625 17.289062 Z M 61.691406 7.65625 C 61.511719 7.652344 61.359375 7.796875 61.355469 7.976562 L 61.355469 7.984375 C 61.339844 8.839844 61.285156 9.707031 61.183594 10.550781 C 61.164062 10.71875 61.140625 10.890625 61.117188 11.058594 C 60.714844 9.769531 60.371094 8.464844 60.121094 7.160156 L 60.117188 7.140625 C 60.078125 6.945312 59.890625 6.8125 59.691406 6.84375 C 59.488281 6.875 59.351562 7.066406 59.382812 7.269531 C 59.601562 8.65625 59.90625 10.003906 60.269531 11.335938 C 60.152344 11.1875 60.035156 11.03125 59.921875 10.875 C 59.417969 10.160156 58.96875 9.371094 58.578125 8.578125 L 58.574219 8.566406 C 58.5 8.421875 58.332031 8.347656 58.171875 8.402344 C 58.003906 8.460938 57.910156 8.648438 57.972656 8.816406 C 58.222656 9.542969 58.519531 10.238281 58.859375 10.925781 C 58.148438 10.425781 57.433594 9.84375 56.890625 9.21875 C 56.238281 8.460938 56.390625 8.042969 57.226562 6.183594 L 57.503906 5.558594 C 57.804688 4.882812 57.863281 4.179688 57.914062 3.558594 C 57.996094 2.601562 58.066406 2.1875 58.476562 1.960938 C 58.546875 1.921875 58.621094 1.902344 58.699219 1.902344 C 59.359375 1.902344 60.234375 3.210938 60.675781 3.871094 C 60.765625 4.003906 60.84375 4.125 60.914062 4.222656 C 61.261719 4.71875 61.675781 4.929688 62.039062 5.113281 C 62.492188 5.34375 62.921875 5.558594 63.4375 6.417969 C 63.785156 7.003906 63.15625 8.707031 62.167969 10.5 C 62.15625 9.644531 62.101562 8.800781 62.007812 7.949219 C 61.992188 7.789062 61.855469 7.660156 61.691406 7.65625 Z M 12.453125 19.484375 C 8.222656 15.824219 3.878906 9.453125 2.15625 6.90625 C 5.507812 7.351562 14.113281 8.921875 18.117188 12.238281 C 22.574219 15.933594 25.785156 21.703125 27.195312 24.558594 C 26.394531 24.070312 25.601562 23.566406 24.824219 23.035156 C 20.253906 19.964844 15.902344 16.519531 11.800781 12.835938 L 11.792969 12.828125 C 11.625 12.675781 11.363281 12.691406 11.210938 12.855469 C 11.054688 13.023438 11.066406 13.285156 11.234375 13.441406 C 15.335938 17.21875 19.652344 20.726562 24.242188 23.898438 C 24.742188 24.242188 25.25 24.578125 25.757812 24.910156 C 22.140625 24.179688 16.003906 22.554688 12.453125 19.484375 Z M 44.710938 61.382812 C 46.386719 60.117188 48.539062 59.484375 50.046875 59.175781 C 48.8125 60.09375 47.042969 61.441406 45.585938 62.703125 C 43.945312 64.128906 41.757812 66.316406 40.425781 67.675781 C 40.96875 65.984375 42.171875 63.308594 44.710938 61.382812 Z M 47.644531 64.710938 C 45.796875 66.597656 42.875 67.75 41.070312 68.320312 C 42.390625 66.976562 44.5625 64.800781 46.183594 63.394531 C 47.765625 62.023438 49.730469 60.542969 50.949219 59.648438 C 50.449219 60.902344 49.457031 62.863281 47.644531 64.710938 Z M 180.289062 61.382812 C 182.828125 63.308594 184.035156 65.984375 184.574219 67.675781 C 183.246094 66.316406 181.058594 64.128906 179.417969 62.703125 C 177.960938 61.441406 176.1875 60.089844 174.953125 59.175781 C 176.457031 59.484375 178.613281 60.113281 180.289062 61.382812 Z M 178.820312 63.394531 C 180.441406 64.800781 182.613281 66.976562 183.929688 68.324219 C 182.128906 67.75 179.210938 66.601562 177.355469 64.710938 C 175.550781 62.871094 174.558594 60.90625 174.058594 59.652344 C 175.277344 60.546875 177.238281 62.023438 178.820312 63.394531 Z M 163.125 33.359375 C 163.613281 33.574219 164.519531 33.894531 165.589844 33.894531 C 165.832031 33.894531 166.085938 33.878906 166.34375 33.839844 C 167.539062 33.65625 168.457031 33.226562 168.886719 32.660156 C 168.546875 34.769531 168.417969 36.453125 168.375 37.292969 C 166.664062 37.859375 164.945312 38.394531 163.21875 38.890625 C 163.066406 38.660156 162.898438 38.4375 162.71875 38.222656 C 162.746094 38.222656 162.769531 38.226562 162.796875 38.226562 C 162.820312 38.226562 162.847656 38.226562 162.875 38.226562 C 164.277344 38.203125 165.355469 37.800781 165.761719 37.144531 C 165.96875 36.804688 165.988281 36.417969 165.8125 36.050781 C 165.394531 35.183594 164.320312 34.910156 162.523438 35.21875 C 162.167969 35.28125 161.808594 35.378906 161.464844 35.484375 C 162.113281 34.742188 162.671875 34.019531 163.125 33.359375 Z M 158.582031 36.445312 C 158.855469 36.691406 159.148438 36.9375 159.445312 37.195312 C 161.113281 38.613281 162.835938 40.082031 162.421875 41.714844 C 161.847656 44 160.933594 45.894531 160.035156 46.65625 C 159.707031 46.929688 157.855469 47.554688 155.617188 47.351562 C 154.320312 47.226562 152.515625 46.769531 151.296875 45.265625 C 151.296875 45.265625 151.292969 45.261719 151.289062 45.261719 C 150.433594 44.261719 149.535156 43.472656 148.722656 42.875 C 149.589844 43.195312 150.449219 43.578125 151.246094 44.027344 L 151.261719 44.035156 C 151.40625 44.117188 151.585938 44.078125 151.6875 43.941406 C 151.789062 43.792969 151.757812 43.589844 151.609375 43.484375 C 150.75 42.867188 149.855469 42.34375 148.90625 41.882812 C 148.457031 41.664062 147.992188 41.464844 147.519531 41.289062 C 147.707031 41.320312 147.894531 41.355469 148.082031 41.390625 C 148.804688 41.535156 149.53125 41.707031 150.253906 41.886719 C 151.699219 42.257812 153.140625 42.667969 154.570312 43.113281 C 154.730469 43.164062 154.910156 43.082031 154.972656 42.921875 C 155.039062 42.753906 154.957031 42.5625 154.789062 42.496094 C 153.382812 41.941406 151.96875 41.421875 150.53125 40.9375 C 149.8125 40.699219 149.089844 40.472656 148.351562 40.265625 C 148.308594 40.253906 148.265625 40.242188 148.226562 40.230469 C 148.648438 40.179688 149.074219 40.132812 149.507812 40.097656 C 150.664062 40.011719 151.835938 39.964844 153 39.949219 C 153.164062 39.949219 153.3125 39.820312 153.324219 39.652344 C 153.339844 39.46875 153.207031 39.3125 153.027344 39.296875 C 151.84375 39.199219 150.667969 39.136719 149.480469 39.109375 C 149.144531 39.101562 148.804688 39.113281 148.46875 39.117188 C 150.144531 38.625 151.492188 37.949219 152.578125 37.175781 C 154.332031 36.375 157.496094 35.472656 158.582031 36.445312 Z M 163.273438 47.078125 C 165.1875 46.703125 167.453125 46.996094 168.871094 47.261719 C 166.71875 48.121094 162.191406 49.753906 157.453125 50.390625 C 158.820312 49.257812 161.238281 47.46875 163.273438 47.078125 Z M 146.160156 23.324219 C 146.398438 23.277344 146.679688 23.21875 146.988281 23.148438 C 148.617188 22.792969 152.003906 22.050781 152.886719 22.871094 C 154.441406 24.316406 157.125 27.820312 156.28125 29.378906 C 156.109375 29.699219 155.933594 30.085938 155.738281 30.523438 C 154.703125 32.855469 153 36.671875 146.773438 37.980469 C 147.160156 37.621094 147.519531 37.246094 147.863281 36.859375 C 148.492188 36.152344 149.066406 35.421875 149.609375 34.648438 C 149.703125 34.519531 149.6875 34.335938 149.5625 34.222656 C 149.429688 34.097656 149.222656 34.109375 149.101562 34.242188 L 149.09375 34.25 C 148.03125 35.40625 146.851562 36.53125 145.585938 37.351562 C 145.5 37.269531 145.402344 37.191406 145.304688 37.117188 C 145.507812 36.085938 145.917969 35.023438 146.378906 34.003906 C 146.921875 32.820312 147.558594 31.652344 148.238281 30.535156 L 148.242188 30.527344 C 148.328125 30.382812 148.292969 30.195312 148.15625 30.09375 C 148.011719 29.988281 147.804688 30.019531 147.699219 30.164062 C 146.902344 31.257812 146.167969 32.371094 145.5 33.554688 C 145.167969 34.144531 144.847656 34.746094 144.574219 35.378906 C 144.421875 35.730469 144.285156 36.089844 144.164062 36.457031 C 144.089844 36.429688 144.015625 36.40625 143.945312 36.382812 C 143.964844 35.597656 144.066406 34.789062 144.199219 33.988281 C 144.375 32.976562 144.601562 31.957031 144.867188 30.964844 L 144.871094 30.953125 C 144.914062 30.796875 144.832031 30.625 144.671875 30.566406 C 144.503906 30.5 144.316406 30.585938 144.25 30.753906 C 143.867188 31.746094 143.527344 32.742188 143.234375 33.769531 C 143.019531 34.546875 142.824219 35.328125 142.707031 36.15625 C 142.695312 36.152344 142.679688 36.152344 142.667969 36.152344 C 142.667969 35.152344 142.632812 33.363281 142.433594 31.515625 C 142.683594 29.449219 143.863281 23.789062 146.160156 23.324219 Z M 142.035156 37.695312 C 142.195312 37.667969 142.355469 37.65625 142.515625 37.65625 C 143.375 37.65625 144.25 38.042969 144.757812 38.683594 C 145.363281 39.441406 145.414062 40.46875 144.910156 41.644531 C 144.582031 42.410156 143.84375 42.914062 142.9375 42.988281 C 141.964844 43.078125 141.027344 42.640625 140.546875 41.894531 C 139.957031 40.980469 139.828125 39.972656 140.195312 39.128906 C 140.527344 38.367188 141.199219 37.847656 142.035156 37.695312 Z M 130.039062 24.128906 C 131.75 23.265625 134.636719 23.070312 135.652344 23.742188 C 136 23.972656 136.367188 24.15625 136.753906 24.355469 C 137.988281 24.976562 139.261719 25.617188 140.121094 27.824219 C 140.914062 29.859375 141.101562 33.269531 141.140625 35.285156 C 141.003906 34.914062 140.863281 34.539062 140.695312 34.183594 C 140.253906 33.25 139.742188 32.378906 139.113281 31.546875 C 139.011719 31.417969 138.828125 31.378906 138.683594 31.464844 C 138.53125 31.558594 138.480469 31.757812 138.570312 31.914062 L 138.582031 31.929688 C 139.066406 32.742188 139.472656 33.648438 139.777344 34.554688 C 140.011719 35.242188 140.164062 35.945312 140.277344 36.648438 C 139.609375 35.671875 138.890625 34.730469 138.089844 33.871094 C 137.066406 32.777344 135.976562 31.773438 134.738281 30.898438 C 134.601562 30.800781 134.40625 30.824219 134.296875 30.957031 C 134.183594 31.09375 134.203125 31.300781 134.339844 31.414062 L 134.355469 31.429688 C 135.445312 32.328125 136.449219 33.398438 137.339844 34.515625 C 138.113281 35.484375 138.78125 36.523438 139.382812 37.597656 C 139.324219 37.667969 139.273438 37.738281 139.21875 37.808594 C 138.660156 37.363281 138.082031 36.945312 137.46875 36.578125 C 137.023438 36.320312 136.570312 36.082031 136.101562 35.875 C 135.625 35.667969 135.164062 35.488281 134.632812 35.355469 C 134.472656 35.316406 134.308594 35.402344 134.25 35.558594 C 134.183594 35.726562 134.269531 35.914062 134.4375 35.976562 L 134.460938 35.988281 C 134.878906 36.144531 135.320312 36.371094 135.730469 36.609375 C 136.140625 36.851562 136.539062 37.117188 136.921875 37.402344 C 137.496094 37.839844 138.023438 38.328125 138.523438 38.84375 C 137.621094 38.667969 136.246094 38.46875 134.714844 38.34375 C 134.398438 38.304688 134.054688 38.253906 133.699219 38.199219 C 133.65625 37.867188 133.628906 37.546875 133.597656 37.230469 C 133.4375 35.453125 133.265625 33.617188 131.222656 30.144531 C 130.320312 28.605469 129.15625 27.578125 127.976562 26.886719 C 128.453125 25.617188 128.941406 24.679688 130.039062 24.128906 Z M 137.703125 54.625 C 137.222656 54.03125 136.71875 53.417969 136.191406 52.796875 C 136.785156 52.292969 137.351562 51.695312 137.863281 51.085938 C 137.695312 52.316406 137.644531 53.519531 137.703125 54.625 Z M 133.625 52.523438 C 132.816406 52.582031 132.125 52.601562 131.515625 52.597656 C 131.683594 52.175781 131.984375 51.785156 132.367188 51.292969 C 133.09375 50.363281 133.996094 49.203125 134.558594 47.070312 C 134.855469 45.957031 134.957031 45.066406 134.949219 44.289062 C 135.464844 44.050781 135.976562 43.808594 136.496094 43.585938 C 137.042969 43.347656 137.59375 43.128906 138.144531 42.925781 C 138.496094 42.796875 138.851562 42.683594 139.199219 42.589844 C 139.222656 42.628906 139.246094 42.675781 139.269531 42.714844 C 139.324219 42.796875 139.382812 42.867188 139.4375 42.941406 C 139.332031 43.117188 139.214844 43.296875 139.082031 43.46875 C 138.871094 43.757812 138.632812 44.039062 138.386719 44.316406 C 137.894531 44.867188 137.359375 45.40625 136.8125 45.914062 L 136.808594 45.917969 C 136.691406 46.027344 136.667969 46.207031 136.761719 46.34375 C 136.863281 46.492188 137.066406 46.53125 137.214844 46.429688 C 137.855469 45.988281 138.472656 45.53125 139.074219 45.027344 C 139.351562 44.796875 139.621094 44.554688 139.886719 44.296875 C 139.414062 45.203125 139 46.253906 138.664062 47.371094 C 137.46875 49.335938 135.085938 52.417969 133.625 52.523438 Z M 134.585938 41.941406 C 135.308594 41.796875 136.035156 41.671875 136.757812 41.585938 C 137.191406 41.53125 137.621094 41.496094 138.042969 41.480469 C 138.207031 41.476562 138.371094 41.476562 138.535156 41.484375 C 138.246094 41.601562 137.972656 41.726562 137.695312 41.855469 C 137.140625 42.125 136.597656 42.402344 136.0625 42.695312 C 135.660156 42.914062 135.273438 43.148438 134.886719 43.382812 C 134.820312 42.878906 134.714844 42.40625 134.585938 41.941406 Z M 137.933594 40.328125 C 137.46875 40.402344 137.019531 40.5 136.578125 40.609375 C 135.835938 40.796875 135.109375 41.019531 134.390625 41.261719 C 134.386719 41.257812 134.386719 41.25 134.382812 41.246094 C 134.25 40.796875 134.113281 40.339844 133.988281 39.820312 C 134.226562 39.835938 134.460938 39.847656 134.691406 39.867188 C 134.769531 39.878906 134.828125 39.882812 134.851562 39.886719 C 134.878906 39.886719 134.902344 39.890625 134.929688 39.890625 C 134.933594 39.890625 134.9375 39.886719 134.9375 39.886719 C 136.242188 40 137.398438 40.15625 138.15625 40.296875 C 138.082031 40.308594 138.007812 40.316406 137.933594 40.328125 Z M 129.917969 30.910156 C 131.789062 34.09375 131.929688 35.613281 132.089844 37.371094 C 132.152344 38.050781 132.21875 38.757812 132.386719 39.585938 C 132.550781 40.402344 132.753906 41.082031 132.929688 41.679688 C 133.386719 43.214844 133.71875 44.324219 133.09375 46.679688 C 132.609375 48.515625 131.84375 49.496094 131.171875 50.363281 C 130.605469 51.089844 130.070312 51.773438 129.902344 52.75 C 129.667969 54.074219 128.023438 58.6875 124.011719 59.804688 C 124.390625 59.101562 124.753906 58.46875 125.070312 58.171875 C 126.613281 56.742188 128.9375 52.367188 126.589844 47.769531 C 127.003906 46.214844 126.9375 44.453125 126.59375 42.882812 C 126.425781 42.109375 126.386719 41.5625 126.34375 40.867188 C 126.292969 40.085938 126.226562 39.136719 125.945312 37.589844 C 127.132812 36.292969 127.710938 34.71875 127.605469 33.007812 C 127.460938 30.625 126.089844 28.507812 124.878906 27.261719 C 126.46875 27.644531 128.550781 28.589844 129.917969 30.910156 Z M 113.433594 23.550781 C 114.875 22.816406 116.238281 22.121094 116.980469 22.394531 C 118.066406 22.789062 119.390625 24.128906 120.671875 25.421875 C 121.136719 25.890625 121.605469 26.363281 122.074219 26.800781 C 122.082031 26.808594 122.09375 26.820312 122.105469 26.828125 C 122.46875 27.167969 122.832031 27.488281 123.183594 27.757812 C 124.230469 28.554688 125.949219 30.714844 126.09375 33.101562 C 126.152344 34.0625 125.929688 34.945312 125.449219 35.742188 C 124.121094 32.382812 120.167969 28.667969 116.726562 27.761719 C 113.476562 26.90625 109.953125 28.777344 108.929688 29.382812 C 108.390625 29.246094 107.828125 29.152344 107.238281 29.144531 C 107.222656 29.144531 107.210938 29.144531 107.195312 29.144531 C 106.1875 29.144531 105.269531 29.5625 104.433594 30.160156 C 104.308594 30.136719 104.152344 30.113281 103.96875 30.09375 C 104.449219 28.636719 105.683594 25.789062 108.082031 25.507812 C 110.042969 25.277344 111.84375 24.359375 113.433594 23.550781 Z M 122.007812 44.429688 C 122.152344 42.628906 121.765625 40.972656 120.839844 39.472656 C 120.898438 38.4375 120.976562 34.792969 119.238281 33.597656 C 117.519531 32.414062 115.761719 31.964844 114.476562 31.640625 C 113.925781 31.496094 113.445312 31.375 113.113281 31.234375 C 112.824219 31.109375 112.496094 30.933594 112.128906 30.734375 C 111.746094 30.53125 111.316406 30.304688 110.855469 30.089844 C 112.230469 29.453125 114.402344 28.71875 116.34375 29.226562 C 119.609375 30.089844 123.714844 34.199219 124.332031 37.230469 C 124.707031 39.078125 124.773438 40.082031 124.832031 40.96875 C 124.878906 41.695312 124.917969 42.324219 125.113281 43.207031 C 125.238281 43.773438 126.117188 48.300781 123.265625 49.941406 C 123.378906 48.175781 123.023438 46.308594 122.007812 44.429688 Z M 93.566406 55.53125 C 92.472656 54.128906 91.121094 50.972656 91.699219 48.660156 C 92.203125 46.636719 91.949219 43.515625 91.800781 41.648438 C 91.753906 41.09375 91.707031 40.515625 91.71875 40.367188 C 91.773438 39.65625 92.179688 38.070312 92.90625 37.4375 C 93.824219 36.632812 96.648438 34.390625 99.082031 32.535156 C 100.210938 31.671875 101.71875 31.507812 102.847656 31.53125 C 102.519531 31.867188 102.199219 32.203125 101.902344 32.523438 C 101.53125 32.921875 101.183594 33.296875 100.851562 33.605469 L 100.410156 34.015625 C 98.738281 35.550781 96.210938 37.871094 96.648438 40.941406 C 96.890625 42.632812 97.589844 43.601562 98.394531 44.367188 C 97.65625 45.355469 96.445312 47.46875 96.875 50.40625 C 97.382812 53.902344 99.386719 54.613281 101.511719 55.363281 C 101.949219 55.519531 102.410156 55.683594 102.882812 55.878906 C 104.144531 56.40625 105.125 56.851562 106.007812 57.367188 C 104.550781 58.410156 102.828125 58.867188 100.855469 58.710938 C 99.777344 58.625 98.738281 58.367188 97.796875 58.03125 C 97.792969 58.03125 97.789062 58.03125 97.785156 58.027344 C 95.625 57.257812 93.980469 56.0625 93.566406 55.53125 Z M 115.851562 40.203125 C 115.402344 39.460938 114.726562 38.953125 113.964844 38.734375 C 113.632812 38.308594 113.195312 37.96875 112.621094 37.746094 C 110.792969 37.027344 109.257812 37.742188 108.410156 38.59375 C 107.511719 38.5625 105.582031 38.878906 104.324219 41.78125 C 102.890625 45.082031 105.148438 47.042969 106.796875 48.476562 C 107.054688 48.699219 107.304688 48.914062 107.527344 49.128906 C 108.605469 50.144531 110.265625 50.777344 111.875 50.777344 C 113.054688 50.777344 114.207031 50.4375 115.074219 49.660156 C 116.464844 48.421875 116.773438 46.84375 116.722656 45.550781 C 117.316406 45.054688 118.390625 43.921875 118.417969 42.210938 C 118.441406 40.664062 117.261719 39.113281 116.3125 37.933594 C 117.214844 38.125 118.335938 38.589844 119.164062 39.683594 C 120.671875 41.679688 120.9375 43.976562 119.976562 46.710938 C 119.003906 49.480469 115.707031 52.902344 112.914062 53.160156 C 108.867188 53.539062 106.699219 52.644531 106.28125 50.429688 C 105.902344 48.410156 104.765625 46.835938 103.757812 45.449219 C 102.996094 44.394531 102.335938 43.484375 102.183594 42.636719 C 101.816406 40.585938 103.359375 38.699219 106.898438 36.867188 C 108.148438 36.222656 109.300781 36.019531 110.25 36.019531 C 111.074219 36.019531 111.746094 36.171875 112.199219 36.316406 C 113.355469 36.683594 113.960938 37.253906 114.042969 37.410156 C 114.222656 37.757812 114.550781 38.164062 114.964844 38.675781 C 115.742188 39.640625 116.917969 41.097656 116.902344 42.1875 C 116.894531 42.789062 116.667969 43.28125 116.402344 43.667969 C 116.371094 43.5625 116.339844 43.464844 116.3125 43.386719 C 116.558594 42.246094 116.398438 41.113281 115.851562 40.203125 Z M 107.292969 42.457031 C 107.078125 43.515625 107.316406 45.457031 109.597656 46.546875 C 110.246094 46.859375 110.96875 47.015625 111.695312 47.015625 C 112.359375 47.015625 113.023438 46.882812 113.640625 46.625 C 114.253906 46.367188 114.78125 46 115.207031 45.546875 C 115.253906 46.503906 115.046875 47.65625 114.066406 48.53125 C 112.652344 49.792969 109.902344 49.289062 108.570312 48.027344 C 108.328125 47.800781 108.066406 47.570312 107.789062 47.328125 C 105.9375 45.722656 104.792969 44.507812 105.714844 42.382812 C 106.238281 41.175781 106.871094 40.605469 107.410156 40.335938 C 107.21875 40.933594 107.109375 41.671875 107.292969 42.457031 Z M 112.816406 42.371094 C 112.632812 42.9375 111.988281 43.402344 111.183594 43.566406 C 110.574219 43.6875 109.757812 43.625 109.292969 43.09375 C 108.226562 41.859375 108.90625 40.480469 109.25 39.941406 C 109.457031 39.617188 110.125 38.96875 111.121094 38.96875 C 111.410156 38.96875 111.730469 39.023438 112.070312 39.15625 C 113.398438 39.671875 113.207031 41.191406 112.816406 42.371094 Z M 114.257812 42.847656 C 114.460938 42.230469 114.578125 41.652344 114.613281 41.121094 C 114.957031 41.785156 115.007812 42.632812 114.71875 43.484375 C 114.457031 44.265625 113.863281 44.886719 113.050781 45.226562 C 112.152344 45.605469 111.105469 45.589844 110.25 45.179688 C 110.1875 45.148438 110.132812 45.117188 110.074219 45.085938 C 110.257812 45.113281 110.441406 45.136719 110.632812 45.136719 C 110.910156 45.136719 111.191406 45.109375 111.480469 45.050781 C 112.832031 44.78125 113.894531 43.9375 114.257812 42.847656 Z M 115.089844 36.289062 C 114.585938 35.730469 113.695312 35.199219 112.660156 34.871094 C 111.460938 34.488281 109.019531 34.0625 106.199219 35.523438 C 101.996094 37.695312 100.195312 40.113281 100.695312 42.90625 C 100.875 43.925781 101.484375 44.871094 102.179688 45.847656 C 102.070312 45.730469 101.960938 45.613281 101.863281 45.492188 C 101.335938 44.863281 100.757812 44.386719 100.25 43.96875 C 99.214844 43.117188 98.394531 42.445312 98.148438 40.730469 C 97.824219 38.445312 99.910156 36.53125 101.433594 35.136719 L 101.890625 34.710938 C 102.25 34.375 102.621094 33.976562 103.011719 33.554688 C 104.277344 32.199219 105.707031 30.660156 107.195312 30.660156 C 107.203125 30.660156 107.210938 30.660156 107.21875 30.660156 C 108.808594 30.679688 110.253906 31.453125 111.414062 32.074219 C 111.824219 32.292969 112.195312 32.488281 112.515625 32.625 C 112.957031 32.816406 113.488281 32.953125 114.105469 33.109375 C 115.34375 33.421875 116.882812 33.816406 118.378906 34.84375 C 118.9375 35.230469 119.214844 36.441406 119.308594 37.683594 C 117.75 36.453125 115.921875 36.289062 115.089844 36.289062 Z M 103.464844 54.480469 C 102.964844 54.273438 102.480469 54.101562 102.015625 53.9375 C 99.980469 53.214844 98.753906 52.78125 98.375 50.1875 C 98.035156 47.851562 98.960938 46.164062 99.542969 45.359375 C 99.941406 45.691406 100.339844 46.035156 100.695312 46.464844 C 101.285156 47.171875 102.011719 47.828125 102.710938 48.464844 C 103.671875 49.339844 104.761719 50.328125 104.859375 50.988281 C 104.871094 51.082031 104.902344 51.171875 104.945312 51.25 C 105.640625 53.574219 107.75 54.757812 111.277344 54.757812 C 111.835938 54.757812 112.429688 54.730469 113.054688 54.671875 C 116.546875 54.34375 120.257812 50.480469 121.40625 47.210938 C 121.425781 47.15625 121.4375 47.105469 121.457031 47.050781 C 122.972656 52.375 118.753906 56.921875 116.125 58.449219 C 112.738281 60.417969 110.808594 59.296875 109.507812 58.097656 C 107.644531 56.382812 106.136719 55.59375 103.464844 54.480469 Z M 99.453125 25.839844 C 101.535156 24.539062 103.632812 24.027344 105.664062 23.535156 C 106.28125 23.386719 106.894531 23.238281 107.503906 23.070312 C 108.667969 22.746094 109.945312 22.867188 110.949219 23.074219 C 109.96875 23.511719 108.941406 23.878906 107.90625 24 C 104.367188 24.417969 102.855469 28.460938 102.402344 30.015625 C 101.09375 30.046875 99.472656 30.328125 98.160156 31.332031 C 96.675781 32.464844 95.046875 33.738281 93.78125 34.753906 C 94.144531 32.230469 96.28125 27.820312 99.453125 25.839844 Z M 84.882812 27.824219 C 85.738281 25.617188 87.015625 24.976562 88.246094 24.355469 C 88.636719 24.15625 89.003906 23.972656 89.351562 23.742188 C 90.367188 23.070312 93.253906 23.265625 94.964844 24.128906 C 95.828125 24.5625 96.3125 25.238281 96.710938 26.117188 C 93.71875 29.082031 91.972656 33.648438 92.242188 36.011719 C 92.121094 36.113281 92 36.21875 91.910156 36.296875 C 91.324219 36.804688 90.929688 37.558594 90.664062 38.289062 C 90.53125 38.308594 90.386719 38.332031 90.265625 38.347656 C 88.742188 38.472656 87.378906 38.671875 86.476562 38.84375 C 86.980469 38.332031 87.507812 37.839844 88.082031 37.402344 C 88.464844 37.117188 88.863281 36.851562 89.273438 36.609375 C 89.679688 36.371094 90.125 36.144531 90.539062 35.988281 L 90.5625 35.976562 C 90.714844 35.921875 90.804688 35.757812 90.765625 35.59375 C 90.722656 35.417969 90.542969 35.3125 90.371094 35.355469 C 89.839844 35.488281 89.375 35.667969 88.902344 35.875 C 88.433594 36.082031 87.976562 36.320312 87.535156 36.578125 C 86.921875 36.945312 86.34375 37.363281 85.78125 37.808594 C 85.730469 37.738281 85.675781 37.667969 85.621094 37.597656 C 86.21875 36.523438 86.890625 35.484375 87.664062 34.515625 C 88.554688 33.398438 89.554688 32.332031 90.644531 31.429688 L 90.660156 31.414062 C 90.792969 31.308594 90.816406 31.117188 90.71875 30.976562 C 90.617188 30.828125 90.410156 30.792969 90.265625 30.898438 C 89.027344 31.773438 87.9375 32.777344 86.914062 33.871094 C 86.113281 34.730469 85.394531 35.671875 84.726562 36.648438 C 84.835938 35.945312 84.988281 35.242188 85.226562 34.554688 C 85.53125 33.648438 85.9375 32.742188 86.421875 31.929688 L 86.429688 31.914062 C 86.515625 31.773438 86.480469 31.589844 86.347656 31.488281 C 86.203125 31.378906 86 31.40625 85.890625 31.546875 C 85.257812 32.378906 84.75 33.25 84.308594 34.183594 C 84.140625 34.539062 84 34.914062 83.859375 35.289062 C 83.898438 33.269531 84.089844 29.859375 84.882812 27.824219 Z M 87.140625 51.085938 C 87.648438 51.695312 88.214844 52.292969 88.808594 52.792969 C 88.285156 53.414062 87.78125 54.023438 87.300781 54.617188 C 87.359375 53.515625 87.304688 52.3125 87.140625 51.085938 Z M 86.335938 47.371094 C 86 46.253906 85.589844 45.203125 85.117188 44.296875 C 85.382812 44.554688 85.652344 44.796875 85.929688 45.027344 C 86.53125 45.53125 87.144531 45.988281 87.785156 46.429688 C 87.917969 46.519531 88.097656 46.5 88.210938 46.382812 C 88.335938 46.25 88.328125 46.042969 88.195312 45.917969 L 88.1875 45.914062 C 87.644531 45.40625 87.109375 44.867188 86.617188 44.316406 C 86.371094 44.039062 86.132812 43.757812 85.917969 43.46875 C 85.789062 43.296875 85.671875 43.117188 85.5625 42.941406 C 85.621094 42.867188 85.679688 42.796875 85.730469 42.714844 C 85.757812 42.675781 85.777344 42.628906 85.804688 42.589844 C 86.152344 42.683594 86.503906 42.796875 86.855469 42.925781 C 87.410156 43.128906 87.960938 43.347656 88.507812 43.585938 C 89.164062 43.867188 89.8125 44.167969 90.460938 44.476562 C 90.507812 45.835938 90.484375 47.261719 90.226562 48.292969 C 89.925781 49.511719 90.023438 50.832031 90.328125 52.074219 C 88.945312 51.136719 87.277344 48.914062 86.335938 47.371094 Z M 90.238281 41.140625 C 89.640625 40.949219 89.039062 40.765625 88.421875 40.609375 C 87.980469 40.5 87.53125 40.402344 87.070312 40.328125 C 86.996094 40.316406 86.917969 40.308594 86.84375 40.296875 C 87.601562 40.15625 88.761719 40 90.0625 39.886719 C 90.066406 39.886719 90.070312 39.890625 90.070312 39.890625 C 90.097656 39.890625 90.125 39.886719 90.152344 39.886719 C 90.167969 39.882812 90.207031 39.878906 90.253906 39.875 C 90.230469 40.019531 90.214844 40.148438 90.207031 40.25 C 90.191406 40.429688 90.207031 40.703125 90.238281 41.140625 Z M 86.960938 41.480469 C 87.378906 41.496094 87.8125 41.53125 88.242188 41.585938 C 88.925781 41.667969 89.617188 41.785156 90.300781 41.917969 C 90.339844 42.402344 90.382812 42.957031 90.417969 43.554688 C 89.925781 43.261719 89.441406 42.96875 88.941406 42.695312 C 88.40625 42.402344 87.863281 42.125 87.304688 41.855469 C 87.03125 41.726562 86.753906 41.601562 86.46875 41.484375 C 86.628906 41.476562 86.796875 41.476562 86.960938 41.480469 Z M 84.804688 39.128906 C 85.171875 39.972656 85.046875 40.980469 84.457031 41.894531 C 83.976562 42.640625 83.042969 43.078125 82.066406 42.988281 C 81.160156 42.914062 80.421875 42.410156 80.09375 41.644531 C 79.589844 40.46875 79.640625 39.441406 80.242188 38.683594 C 80.75 38.042969 81.625 37.65625 82.488281 37.65625 C 82.648438 37.65625 82.808594 37.667969 82.964844 37.695312 C 83.804688 37.847656 84.476562 38.371094 84.804688 39.128906 Z M 72.117188 22.871094 C 73 22.050781 76.386719 22.792969 78.015625 23.148438 C 78.324219 23.21875 78.605469 23.277344 78.84375 23.328125 C 80.898438 23.738281 82.210938 28.53125 82.570312 31.515625 C 82.367188 33.363281 82.332031 35.148438 82.332031 36.152344 C 82.320312 36.152344 82.308594 36.152344 82.296875 36.152344 C 82.175781 35.328125 81.980469 34.542969 81.765625 33.769531 C 81.472656 32.742188 81.136719 31.746094 80.753906 30.753906 C 80.691406 30.601562 80.523438 30.511719 80.363281 30.554688 C 80.1875 30.601562 80.085938 30.78125 80.132812 30.957031 L 80.132812 30.964844 C 80.402344 31.957031 80.628906 32.976562 80.800781 33.988281 C 80.9375 34.789062 81.039062 35.597656 81.058594 36.378906 C 80.984375 36.40625 80.910156 36.429688 80.839844 36.457031 C 80.71875 36.085938 80.578125 35.730469 80.429688 35.378906 C 80.152344 34.746094 79.835938 34.144531 79.503906 33.554688 C 78.835938 32.371094 78.101562 31.257812 77.304688 30.164062 C 77.203125 30.03125 77.015625 29.992188 76.867188 30.078125 C 76.714844 30.171875 76.667969 30.375 76.761719 30.527344 L 76.765625 30.535156 C 77.445312 31.652344 78.078125 32.820312 78.621094 34.003906 C 79.085938 35.023438 79.496094 36.085938 79.695312 37.117188 C 79.601562 37.195312 79.503906 37.269531 79.417969 37.351562 C 78.152344 36.53125 76.972656 35.40625 75.910156 34.25 L 75.902344 34.242188 C 75.792969 34.121094 75.609375 34.097656 75.472656 34.195312 C 75.324219 34.296875 75.289062 34.503906 75.394531 34.648438 C 75.933594 35.421875 76.511719 36.152344 77.136719 36.859375 C 77.484375 37.246094 77.84375 37.621094 78.230469 37.980469 C 72.003906 36.671875 70.300781 32.855469 69.261719 30.523438 C 69.066406 30.085938 68.894531 29.699219 68.722656 29.378906 C 67.878906 27.820312 70.558594 24.316406 72.117188 22.871094 Z M 73.296875 43.910156 C 73.386719 44.066406 73.585938 44.125 73.742188 44.035156 L 73.753906 44.027344 C 74.554688 43.578125 75.414062 43.195312 76.28125 42.875 C 75.46875 43.472656 74.570312 44.261719 73.710938 45.261719 C 73.710938 45.261719 73.707031 45.265625 73.703125 45.265625 C 72.488281 46.765625 70.683594 47.226562 69.382812 47.351562 C 67.140625 47.558594 65.292969 46.929688 64.96875 46.65625 C 64.070312 45.894531 63.15625 44 62.578125 41.714844 C 62.167969 40.082031 63.890625 38.613281 65.558594 37.195312 C 65.855469 36.9375 66.148438 36.691406 66.421875 36.445312 C 67.503906 35.472656 70.667969 36.375 72.421875 37.175781 C 73.511719 37.945312 74.855469 38.625 76.535156 39.117188 C 76.195312 39.113281 75.855469 39.101562 75.523438 39.109375 C 74.332031 39.136719 73.15625 39.199219 71.976562 39.296875 C 71.8125 39.3125 71.675781 39.453125 71.675781 39.625 C 71.675781 39.804688 71.824219 39.949219 72.003906 39.949219 C 73.167969 39.964844 74.339844 40.011719 75.496094 40.097656 C 75.925781 40.132812 76.351562 40.179688 76.777344 40.230469 C 76.734375 40.242188 76.695312 40.253906 76.652344 40.265625 C 75.914062 40.472656 75.1875 40.699219 74.46875 40.9375 C 73.035156 41.421875 71.621094 41.941406 70.210938 42.496094 C 70.054688 42.5625 69.96875 42.738281 70.019531 42.902344 C 70.078125 43.074219 70.261719 43.167969 70.433594 43.113281 C 71.859375 42.667969 73.304688 42.257812 74.75 41.886719 C 75.472656 41.707031 76.195312 41.535156 76.917969 41.390625 C 77.105469 41.355469 77.296875 41.320312 77.484375 41.289062 C 77.007812 41.464844 76.546875 41.664062 76.09375 41.882812 C 75.144531 42.34375 74.253906 42.867188 73.390625 43.484375 C 73.257812 43.582031 73.214844 43.765625 73.296875 43.910156 Z M 67.550781 50.390625 C 62.808594 49.753906 58.285156 48.121094 56.132812 47.261719 C 57.550781 46.996094 59.8125 46.703125 61.730469 47.078125 C 63.761719 47.46875 66.179688 49.257812 67.550781 50.390625 Z M 56.628906 37.292969 C 56.582031 36.453125 56.457031 34.773438 56.113281 32.660156 C 56.542969 33.226562 57.460938 33.65625 58.65625 33.839844 C 58.914062 33.878906 59.167969 33.894531 59.414062 33.894531 C 60.480469 33.894531 61.386719 33.574219 61.878906 33.359375 C 62.332031 34.019531 62.886719 34.738281 63.539062 35.484375 C 63.195312 35.378906 62.832031 35.28125 62.476562 35.21875 C 60.683594 34.90625 59.609375 35.183594 59.1875 36.050781 C 59.011719 36.417969 59.03125 36.804688 59.242188 37.144531 C 59.648438 37.800781 60.726562 38.203125 62.128906 38.226562 C 62.152344 38.226562 62.179688 38.226562 62.207031 38.226562 C 62.234375 38.226562 62.257812 38.222656 62.285156 38.222656 C 62.101562 38.4375 61.933594 38.660156 61.785156 38.886719 C 60.054688 38.394531 58.339844 37.859375 56.628906 37.292969 Z M 49.890625 14.5625 C 49.992188 14.261719 50.359375 14.160156 50.8125 14.160156 C 51.460938 14.160156 52.296875 14.367188 52.804688 14.492188 C 52.957031 14.53125 53.097656 14.566406 53.21875 14.589844 C 53.808594 14.726562 54.253906 14.601562 54.648438 14.488281 C 55.136719 14.351562 55.601562 14.222656 56.558594 14.511719 C 57.214844 14.710938 57.894531 16.394531 58.375 18.382812 C 57.785156 17.757812 57.179688 17.171875 56.535156 16.605469 C 56.414062 16.5 56.230469 16.496094 56.105469 16.605469 C 55.96875 16.722656 55.957031 16.929688 56.074219 17.066406 L 56.078125 17.074219 C 56.640625 17.714844 57.1875 18.390625 57.679688 19.082031 C 57.765625 19.203125 57.847656 19.324219 57.929688 19.445312 C 56.769531 18.730469 55.644531 17.949219 54.589844 17.105469 L 54.578125 17.09375 C 54.441406 16.988281 54.246094 17.003906 54.128906 17.132812 C 54.007812 17.269531 54.019531 17.472656 54.15625 17.59375 C 55.261719 18.574219 56.425781 19.472656 57.644531 20.296875 C 57.417969 20.265625 57.191406 20.222656 56.964844 20.171875 C 56.113281 19.984375 55.25 19.707031 54.425781 19.382812 L 54.414062 19.378906 C 54.265625 19.316406 54.089844 19.378906 54.007812 19.527344 C 53.921875 19.683594 53.980469 19.882812 54.140625 19.96875 C 54.8125 20.335938 55.503906 20.652344 56.21875 20.929688 C 55.355469 21.039062 54.433594 21.09375 53.613281 20.992188 C 52.617188 20.875 52.449219 20.460938 51.8125 18.523438 L 51.597656 17.878906 C 51.359375 17.171875 50.929688 16.613281 50.550781 16.121094 C 49.964844 15.359375 49.742188 15.003906 49.890625 14.5625 Z M 53.457031 22.308594 C 53.816406 22.355469 54.191406 22.371094 54.566406 22.371094 C 56.640625 22.371094 58.820312 21.8125 59.496094 21.625 C 59.574219 21.628906 59.648438 21.621094 59.722656 21.597656 C 61.503906 22.597656 63.429688 23.429688 65.554688 23.730469 C 66.160156 24.742188 66.828125 25.714844 67.515625 26.671875 C 67.019531 27.859375 66.835938 29.082031 67.390625 30.101562 C 67.546875 30.390625 67.699219 30.742188 67.878906 31.140625 C 68.316406 32.125 68.902344 33.4375 69.90625 34.75 C 69.101562 34.574219 68.238281 34.46875 67.4375 34.539062 C 67.503906 34.359375 67.566406 34.175781 67.613281 33.980469 C 67.941406 32.617188 67.820312 31.472656 67.289062 30.917969 C 67.011719 30.628906 66.640625 30.511719 66.242188 30.59375 C 65.296875 30.78125 64.765625 31.753906 64.613281 33.566406 C 64.566406 34.167969 64.601562 34.804688 64.660156 35.355469 C 63.859375 34.484375 63.210938 33.648438 62.683594 32.886719 C 63.226562 32.480469 64.167969 31.636719 64.664062 30.371094 C 65.171875 29.0625 65.207031 27.914062 64.753906 27.289062 C 64.519531 26.964844 64.167969 26.816406 63.761719 26.828125 C 62.800781 26.882812 62.140625 27.777344 61.75 29.554688 C 61.640625 30.050781 61.589844 30.574219 61.566406 31.058594 C 61.105469 30.203125 60.863281 29.59375 60.789062 29.382812 C 60.839844 28.910156 61.015625 26.945312 60.640625 25.472656 C 60.316406 24.195312 59.625 23.128906 58.839844 22.691406 C 58.421875 22.460938 57.984375 22.410156 57.578125 22.542969 C 57.121094 22.6875 56.78125 23.003906 56.597656 23.453125 C 56.25 24.285156 56.460938 25.527344 57.183594 26.953125 C 58.023438 28.601562 59.460938 29.484375 59.949219 29.753906 C 60.050781 30.035156 60.292969 30.640625 60.730469 31.464844 C 60.316406 31.253906 59.863281 31.050781 59.410156 30.90625 C 57.671875 30.359375 56.570312 30.484375 56.039062 31.289062 C 55.988281 31.367188 55.949219 31.449219 55.917969 31.53125 C 55.503906 29.304688 54.855469 26.734375 53.839844 24.214844 C 53.566406 23.527344 53.234375 22.851562 52.863281 22.191406 C 53.042969 22.242188 53.238281 22.285156 53.457031 22.308594 Z M 47.019531 29.707031 C 45.035156 25.832031 45.082031 17.949219 45.183594 14.835938 C 47.027344 16.539062 51 20.523438 52.671875 24.683594 C 54.449219 29.109375 55.070312 33.804688 55.285156 36.234375 C 54.855469 35.761719 54.445312 35.269531 54.074219 34.746094 C 53.367188 33.761719 52.710938 32.734375 52.160156 31.644531 C 51.597656 30.558594 51.101562 29.441406 50.675781 28.289062 C 50.25 27.140625 49.878906 25.957031 49.613281 24.777344 L 49.613281 24.761719 C 49.574219 24.601562 49.417969 24.496094 49.253906 24.527344 C 49.085938 24.554688 48.972656 24.71875 49.003906 24.886719 C 49.230469 26.140625 49.550781 27.34375 49.9375 28.546875 C 50.324219 29.742188 50.785156 30.914062 51.316406 32.058594 C 51.839844 33.210938 52.472656 34.3125 53.171875 35.375 C 53.296875 35.566406 53.429688 35.75 53.558594 35.933594 C 51.390625 34.660156 48.472656 32.539062 47.019531 29.707031 Z M 31.214844 22.210938 C 28.441406 17.253906 27.429688 10.980469 26.945312 7.964844 C 26.90625 7.726562 26.875 7.519531 26.84375 7.335938 C 29.207031 8.820312 34.898438 13.019531 37.308594 17.023438 C 39.699219 21 40.675781 27.695312 41.011719 30.800781 C 40.410156 30.195312 39.824219 29.570312 39.292969 28.898438 C 38.390625 27.796875 37.5625 26.632812 36.820312 25.414062 C 36.074219 24.195312 35.390625 22.933594 34.792969 21.632812 C 34.195312 20.332031 33.660156 18.984375 33.246094 17.632812 L 33.242188 17.617188 C 33.191406 17.457031 33.027344 17.367188 32.863281 17.410156 C 32.699219 17.453125 32.601562 17.621094 32.644531 17.789062 C 33.023438 19.21875 33.515625 20.589844 34.078125 21.945312 C 34.636719 23.296875 35.289062 24.613281 36.011719 25.890625 C 36.722656 27.171875 37.535156 28.40625 38.429688 29.578125 C 38.523438 29.710938 38.628906 29.835938 38.730469 29.964844 C 36.351562 28.382812 33.230469 25.808594 31.214844 22.210938 Z M 31.664062 39.617188 C 27.027344 40.574219 20.4375 39.679688 17.957031 39.277344 C 19.140625 37.816406 22.15625 34.691406 27.199219 33.339844 C 31.207031 32.261719 36.214844 32.652344 39.648438 33.152344 C 38.183594 33.394531 36.730469 33.699219 35.292969 34.054688 C 32.515625 34.746094 29.789062 35.589844 27.117188 36.625 C 26.960938 36.6875 26.878906 36.859375 26.933594 37.015625 C 26.992188 37.179688 27.167969 37.265625 27.328125 37.210938 L 27.339844 37.207031 C 30 36.289062 32.746094 35.550781 35.503906 34.972656 C 37.492188 34.558594 39.503906 34.246094 41.515625 34.066406 C 41.339844 34.207031 41.15625 34.351562 40.960938 34.507812 C 38.816406 36.222656 35.570312 38.8125 31.664062 39.617188 Z M 46.269531 40.917969 C 49.039062 39.519531 51.945312 39.117188 54.363281 39.117188 C 55.269531 39.117188 56.101562 39.175781 56.835938 39.257812 C 55.808594 39.539062 54.796875 39.882812 53.816406 40.285156 C 52.824219 40.6875 51.851562 41.140625 50.910156 41.648438 C 49.96875 42.15625 49.058594 42.699219 48.175781 43.328125 C 48.042969 43.421875 48.003906 43.605469 48.089844 43.746094 C 48.183594 43.890625 48.375 43.9375 48.519531 43.84375 L 48.53125 43.835938 C 50.277344 42.738281 52.195312 41.847656 54.148438 41.167969 C 55.128906 40.820312 56.125 40.535156 57.132812 40.316406 C 57.648438 40.195312 58.167969 40.101562 58.691406 40.027344 C 57.425781 41.53125 54.761719 44.269531 50.441406 46.757812 C 46.085938 49.269531 40.566406 49.726562 38.472656 49.808594 C 39.136719 47.984375 41.230469 43.460938 46.269531 40.917969 Z M 53.472656 54.34375 C 51.457031 53.722656 49.609375 52.324219 48.332031 51.171875 C 50.664062 52.183594 54.492188 53.65625 58.554688 54.4375 C 57.332031 54.753906 55.507812 54.96875 53.472656 54.34375 Z M 47.714844 49.898438 C 49.144531 49.703125 51.421875 49.523438 53.316406 49.992188 C 55.324219 50.484375 57.652344 52.390625 58.964844 53.589844 C 54.261719 52.71875 49.824219 50.863281 47.714844 49.898438 Z M 54.890625 60.441406 C 55.730469 58.550781 58.011719 56.589844 59.421875 55.503906 C 57.742188 59.984375 55.140625 64.03125 53.820312 65.9375 C 53.878906 64.496094 54.101562 62.226562 54.890625 60.441406 Z M 59.207031 61.042969 C 58.242188 62.921875 56.542969 64.496094 55.183594 65.554688 C 56.589844 63.429688 58.710938 59.917969 60.1875 56.050781 C 60.285156 57.304688 60.183594 59.144531 59.207031 61.042969 Z M 60.449219 53.738281 C 59.589844 52.875 56.363281 49.800781 53.53125 49.101562 C 52.082031 48.746094 50.464844 48.734375 49.109375 48.832031 C 49.773438 48.542969 50.433594 48.21875 51.070312 47.851562 C 56.464844 44.742188 59.34375 41.316406 60.289062 40.058594 C 60.5625 40.144531 60.839844 40.234375 61.117188 40.316406 C 60.972656 40.871094 60.953125 41.460938 61.109375 42.085938 C 61.546875 43.820312 62.167969 45.335938 62.867188 46.449219 C 62.542969 46.335938 62.222656 46.242188 61.90625 46.179688 C 58.660156 45.550781 54.679688 46.640625 54.511719 46.6875 C 54.503906 46.6875 54.503906 46.691406 54.5 46.691406 C 54.429688 46.714844 54.367188 46.746094 54.316406 46.796875 C 54.308594 46.808594 54.304688 46.816406 54.296875 46.828125 C 54.265625 46.859375 54.234375 46.894531 54.21875 46.9375 C 54.210938 46.949219 54.210938 46.960938 54.207031 46.976562 C 54.203125 46.984375 54.195312 46.992188 54.191406 47 C 54.1875 47.015625 54.195312 47.027344 54.191406 47.042969 C 54.183594 47.09375 54.179688 47.140625 54.1875 47.191406 C 54.191406 47.210938 54.191406 47.230469 54.199219 47.25 C 54.21875 47.320312 54.246094 47.382812 54.296875 47.433594 C 54.441406 47.59375 57.863281 51.28125 61.878906 52.300781 C 62.386719 52.429688 62.878906 52.511719 63.351562 52.558594 C 62.320312 52.960938 61.355469 53.355469 60.449219 53.738281 Z M 66.117188 51.519531 C 65.011719 51.730469 63.628906 51.804688 62.105469 51.417969 C 60.0625 50.894531 58.144531 49.589844 56.8125 48.503906 C 59.148438 49.382812 62.9375 50.628906 66.945312 51.222656 C 66.664062 51.320312 66.390625 51.417969 66.117188 51.519531 Z M 63.824219 57.433594 C 64.566406 55.503906 66.75 53.433594 68.101562 52.28125 C 66.652344 56.839844 64.253906 61.007812 63.027344 62.976562 C 63.015625 61.535156 63.125 59.253906 63.824219 57.433594 Z M 68.160156 57.824219 C 67.292969 59.746094 65.671875 61.40625 64.367188 62.527344 C 65.667969 60.339844 67.609375 56.722656 68.894531 52.789062 C 69.054688 54.039062 69.042969 55.878906 68.160156 57.824219 Z M 69.070312 50.492188 C 68.734375 50.183594 67.988281 49.53125 67.039062 48.820312 C 67.496094 48.875 67.980469 48.90625 68.480469 48.90625 C 68.824219 48.90625 69.175781 48.894531 69.523438 48.859375 C 70.269531 48.789062 70.964844 48.636719 71.613281 48.421875 C 71.367188 48.902344 71.152344 49.390625 70.953125 49.882812 C 70.3125 50.085938 69.679688 50.285156 69.070312 50.492188 Z M 77.75 57.671875 C 75.820312 56.882812 73.886719 57.660156 72.375 56.886719 C 71.964844 56.675781 71.691406 56.285156 71.535156 55.695312 C 71.035156 53.769531 72.003906 50.363281 73.839844 47.59375 C 75.632812 44.890625 78.007812 43.464844 79.089844 42.917969 C 79.136719 42.988281 79.183594 43.058594 79.234375 43.125 C 78.832031 43.625 78.488281 44.148438 78.164062 44.675781 C 77.71875 45.425781 77.324219 46.179688 76.96875 46.972656 C 76.902344 47.117188 76.953125 47.292969 77.089844 47.382812 C 77.242188 47.480469 77.445312 47.433594 77.542969 47.28125 L 77.550781 47.269531 C 78.316406 46.066406 79.191406 44.871094 80.1875 43.9375 C 80.371094 44.046875 80.566406 44.144531 80.769531 44.226562 C 80.703125 45.058594 80.523438 45.925781 80.308594 46.773438 C 80.03125 47.832031 79.695312 48.894531 79.3125 49.925781 L 79.308594 49.933594 C 79.25 50.089844 79.320312 50.265625 79.472656 50.339844 C 79.632812 50.417969 79.828125 50.351562 79.910156 50.191406 C 80.410156 49.167969 80.855469 48.136719 81.25 47.066406 C 81.550781 46.242188 81.824219 45.402344 82 44.5 C 82.105469 44.507812 82.207031 44.515625 82.3125 44.515625 C 82.320312 44.515625 82.332031 44.511719 82.339844 44.511719 C 82.429688 45.003906 82.492188 45.507812 82.492188 46.027344 C 82.5 46.777344 82.429688 47.554688 82.285156 48.285156 L 82.28125 48.304688 C 82.25 48.460938 82.335938 48.621094 82.492188 48.675781 C 82.664062 48.734375 82.851562 48.644531 82.910156 48.476562 C 83.183594 47.691406 83.367188 46.910156 83.480469 46.09375 C 83.546875 45.617188 83.578125 45.128906 83.574219 44.632812 C 85.230469 47.542969 86.210938 52.554688 85.660156 55.753906 C 85.542969 56.445312 85.347656 56.996094 85.101562 57.410156 C 84.996094 57.550781 84.886719 57.691406 84.785156 57.832031 C 84.726562 57.886719 84.675781 57.953125 84.617188 57.996094 C 82.367188 59.574219 79.746094 58.492188 78.011719 57.777344 Z M 79.996094 60.070312 C 80.625 60.226562 81.296875 60.332031 81.988281 60.332031 C 82.324219 60.332031 82.667969 60.304688 83.011719 60.25 C 81.15625 62.851562 79.859375 64.929688 79.046875 66.320312 C 79.015625 64.785156 79.175781 62.554688 79.996094 60.070312 Z M 79.890625 67.597656 C 80.773438 66.039062 82.535156 63.140625 85.394531 59.296875 C 85.425781 59.273438 85.457031 59.257812 85.488281 59.238281 C 86.023438 58.863281 86.441406 58.285156 86.746094 57.519531 C 87.703125 56.285156 88.765625 54.972656 89.933594 53.585938 C 90.277344 53.777344 90.621094 53.910156 90.960938 53.976562 C 91.390625 55 91.910156 55.875 92.371094 56.464844 C 92.492188 56.621094 92.671875 56.796875 92.882812 56.984375 C 92.171875 58.308594 91.289062 59.710938 90.15625 61.1875 C 87.054688 65.222656 82.257812 66.957031 79.890625 67.597656 Z M 92.921875 75.167969 C 91.550781 72.761719 89.527344 68.09375 90.71875 62.976562 C 90.753906 62.8125 90.796875 62.660156 90.835938 62.503906 C 90.972656 62.339844 91.113281 62.1875 91.242188 62.019531 C 92.371094 60.550781 93.261719 59.152344 93.992188 57.824219 C 94.449219 58.128906 94.980469 58.429688 95.5625 58.71875 C 93.828125 65.6875 93.160156 72.011719 92.921875 75.167969 Z M 94.277344 75.386719 C 94.5 72.367188 95.140625 66.152344 96.832031 59.28125 C 96.890625 59.304688 96.949219 59.328125 97.007812 59.351562 C 97.363281 59.992188 98.367188 61.628906 100.097656 63.078125 C 98.839844 69.097656 95.953125 73.335938 94.277344 75.386719 Z M 122.492188 59.425781 C 121.667969 60.957031 120.738281 62.691406 119.378906 63.316406 C 118.082031 63.914062 116.917969 63.714844 115.683594 63.5 C 114.824219 63.355469 113.933594 63.199219 113.046875 63.367188 C 112.457031 63.480469 112.03125 63.660156 111.65625 63.8125 C 110.757812 64.1875 109.832031 64.570312 105.910156 64.078125 C 102.644531 63.667969 100.453125 61.542969 99.273438 60.011719 C 99.753906 60.109375 100.242188 60.183594 100.734375 60.222656 C 101.035156 60.246094 101.328125 60.257812 101.621094 60.257812 C 103.800781 60.257812 105.71875 59.582031 107.335938 58.253906 C 107.714844 58.539062 108.089844 58.851562 108.480469 59.210938 C 109.804688 60.433594 111.222656 61.042969 112.761719 61.042969 C 114.046875 61.042969 115.417969 60.613281 116.886719 59.761719 C 119.496094 58.246094 122.136719 55.273438 122.996094 51.710938 C 124.242188 51.308594 125.136719 50.585938 125.75 49.671875 C 126.914062 53.34375 124.78125 56.375 124.039062 57.0625 C 123.484375 57.578125 123.023438 58.433594 122.492188 59.425781 Z M 124.800781 62.597656 C 124.710938 62.113281 124.636719 61.652344 124.574219 61.199219 C 125.976562 60.769531 127.15625 59.984375 128.117188 59.039062 C 129.851562 66.011719 130.5 72.335938 130.726562 75.390625 C 129.003906 73.289062 126.003906 68.894531 124.800781 62.597656 Z M 132.082031 75.167969 C 131.832031 71.871094 131.117188 65.117188 129.207031 57.785156 C 129.585938 57.28125 129.914062 56.761719 130.195312 56.242188 C 131.027344 58.015625 132.171875 59.953125 133.761719 62.019531 C 133.890625 62.191406 134.03125 62.34375 134.167969 62.503906 C 134.207031 62.660156 134.246094 62.8125 134.285156 62.976562 C 135.472656 68.089844 133.449219 72.761719 132.082031 75.167969 Z M 134.847656 61.1875 C 132.988281 58.765625 131.761719 56.527344 130.960938 54.554688 C 131.015625 54.402344 131.070312 54.253906 131.117188 54.113281 C 131.257812 54.113281 131.402344 54.117188 131.554688 54.117188 C 132.183594 54.117188 132.902344 54.09375 133.734375 54.035156 C 134.171875 54.003906 134.621094 53.835938 135.066406 53.585938 C 136.238281 54.976562 137.300781 56.296875 138.261719 57.535156 C 138.566406 58.292969 138.984375 58.863281 139.515625 59.238281 C 139.542969 59.253906 139.570312 59.269531 139.597656 59.289062 C 142.457031 63.132812 144.230469 66.039062 145.113281 67.601562 C 142.746094 66.960938 137.953125 65.230469 134.847656 61.1875 Z M 145.957031 66.320312 C 145.144531 64.929688 143.84375 62.851562 141.988281 60.25 C 142.332031 60.304688 142.675781 60.332031 143.011719 60.332031 C 143.703125 60.332031 144.375 60.226562 145.003906 60.070312 C 145.820312 62.550781 145.988281 64.785156 145.957031 66.320312 Z M 153.464844 55.695312 C 153.3125 56.285156 153.035156 56.675781 152.625 56.886719 C 151.117188 57.660156 149.183594 56.882812 147.253906 57.671875 L 146.992188 57.777344 C 145.257812 58.492188 142.636719 59.574219 140.382812 57.996094 C 140.320312 57.949219 140.261719 57.875 140.203125 57.8125 C 140.105469 57.6875 140.007812 57.5625 139.914062 57.433594 C 139.664062 57.019531 139.460938 56.460938 139.339844 55.753906 C 138.789062 52.554688 139.769531 47.542969 141.429688 44.632812 C 141.425781 45.128906 141.457031 45.617188 141.523438 46.09375 C 141.636719 46.910156 141.816406 47.691406 142.09375 48.476562 C 142.144531 48.625 142.304688 48.71875 142.464844 48.6875 C 142.640625 48.652344 142.757812 48.480469 142.722656 48.304688 L 142.71875 48.285156 C 142.574219 47.554688 142.503906 46.777344 142.507812 46.027344 C 142.511719 45.507812 142.574219 45.003906 142.664062 44.515625 C 142.671875 44.515625 142.679688 44.515625 142.691406 44.515625 C 142.792969 44.515625 142.898438 44.507812 143 44.503906 C 143.175781 45.402344 143.453125 46.242188 143.75 47.070312 C 144.144531 48.136719 144.59375 49.167969 145.09375 50.191406 C 145.167969 50.339844 145.34375 50.410156 145.5 50.351562 C 145.671875 50.289062 145.757812 50.101562 145.695312 49.933594 L 145.691406 49.925781 C 145.308594 48.894531 144.96875 47.832031 144.695312 46.773438 C 144.480469 45.925781 144.300781 45.058594 144.230469 44.226562 C 144.4375 44.144531 144.628906 44.046875 144.8125 43.9375 C 145.8125 44.871094 146.6875 46.066406 147.453125 47.269531 L 147.460938 47.28125 C 147.546875 47.417969 147.71875 47.472656 147.871094 47.40625 C 148.035156 47.332031 148.109375 47.136719 148.035156 46.972656 C 147.675781 46.179688 147.28125 45.425781 146.835938 44.675781 C 146.515625 44.148438 146.171875 43.625 145.765625 43.125 C 145.820312 43.058594 145.867188 42.988281 145.914062 42.917969 C 146.992188 43.457031 149.363281 44.878906 151.164062 47.59375 C 153 50.363281 153.96875 53.769531 153.464844 55.695312 Z M 155.933594 50.492188 C 155.324219 50.289062 154.691406 50.085938 154.050781 49.882812 C 153.851562 49.394531 153.636719 48.902344 153.386719 48.421875 C 154.035156 48.636719 154.730469 48.789062 155.476562 48.859375 C 155.828125 48.894531 156.179688 48.90625 156.523438 48.90625 C 157.019531 48.90625 157.503906 48.875 157.964844 48.820312 C 157.011719 49.53125 156.269531 50.183594 155.933594 50.492188 Z M 156.839844 57.824219 C 155.964844 55.886719 155.949219 54.046875 156.109375 52.792969 C 157.394531 56.726562 159.335938 60.339844 160.636719 62.527344 C 159.328125 61.40625 157.710938 59.746094 156.839844 57.824219 Z M 161.179688 57.433594 C 161.878906 59.253906 161.988281 61.535156 161.976562 62.980469 C 160.75 61.007812 158.351562 56.839844 156.898438 52.28125 C 158.253906 53.433594 160.4375 55.503906 161.179688 57.433594 Z M 158.882812 51.519531 C 158.609375 51.417969 158.335938 51.320312 158.058594 51.222656 C 162.066406 50.628906 165.855469 49.382812 168.191406 48.503906 C 166.855469 49.589844 164.941406 50.894531 162.898438 51.417969 C 161.371094 51.804688 159.992188 51.730469 158.882812 51.519531 Z M 165.796875 61.042969 C 164.824219 59.152344 164.71875 57.316406 164.816406 56.058594 C 166.296875 59.921875 168.414062 63.433594 169.820312 65.554688 C 168.460938 64.496094 166.761719 62.921875 165.796875 61.042969 Z M 170.109375 60.441406 C 170.898438 62.222656 171.121094 64.496094 171.179688 65.9375 C 169.859375 64.03125 167.257812 59.984375 165.582031 55.503906 C 166.988281 56.585938 169.273438 58.546875 170.109375 60.441406 Z M 171.53125 54.34375 C 169.496094 54.96875 167.667969 54.753906 166.449219 54.4375 C 170.511719 53.65625 174.335938 52.183594 176.671875 51.171875 C 175.394531 52.324219 173.542969 53.722656 171.53125 54.34375 Z M 166.039062 53.589844 C 167.351562 52.390625 169.675781 50.484375 171.6875 49.992188 C 173.582031 49.523438 175.859375 49.703125 177.285156 49.898438 C 175.179688 50.863281 170.742188 52.71875 166.039062 53.589844 Z M 171.46875 49.101562 C 168.636719 49.800781 165.414062 52.875 164.550781 53.738281 C 163.648438 53.355469 162.679688 52.960938 161.648438 52.558594 C 162.125 52.511719 162.613281 52.429688 163.125 52.300781 C 167.140625 51.28125 170.5625 47.59375 170.707031 47.433594 C 170.753906 47.382812 170.785156 47.320312 170.804688 47.25 C 170.808594 47.230469 170.8125 47.214844 170.8125 47.191406 C 170.820312 47.144531 170.820312 47.09375 170.808594 47.042969 C 170.808594 47.027344 170.8125 47.015625 170.808594 47 C 170.808594 46.992188 170.796875 46.984375 170.796875 46.976562 C 170.789062 46.964844 170.792969 46.949219 170.785156 46.9375 C 170.765625 46.894531 170.738281 46.863281 170.707031 46.828125 C 170.699219 46.820312 170.695312 46.808594 170.6875 46.796875 C 170.632812 46.75 170.570312 46.714844 170.503906 46.691406 C 170.5 46.691406 170.496094 46.6875 170.492188 46.6875 C 170.324219 46.640625 166.339844 45.550781 163.097656 46.179688 C 162.78125 46.242188 162.457031 46.335938 162.132812 46.449219 C 162.835938 45.335938 163.457031 43.820312 163.894531 42.085938 C 164.050781 41.460938 164.03125 40.871094 163.886719 40.316406 C 164.164062 40.230469 164.4375 40.144531 164.714844 40.058594 C 165.65625 41.316406 168.539062 44.742188 173.929688 47.851562 C 174.570312 48.21875 175.226562 48.542969 175.890625 48.832031 C 174.539062 48.734375 172.921875 48.746094 171.46875 49.101562 Z M 178.734375 40.917969 C 183.773438 43.460938 185.863281 47.984375 186.53125 49.808594 C 184.4375 49.726562 178.917969 49.269531 174.5625 46.757812 C 170.242188 44.269531 167.578125 41.53125 166.3125 40.027344 C 166.832031 40.101562 167.355469 40.195312 167.871094 40.316406 C 168.878906 40.535156 169.875 40.820312 170.851562 41.167969 C 172.808594 41.847656 174.722656 42.738281 176.46875 43.835938 L 176.484375 43.84375 C 176.621094 43.929688 176.804688 43.898438 176.902344 43.761719 C 177 43.621094 176.96875 43.429688 176.828125 43.328125 C 175.941406 42.699219 175.035156 42.15625 174.089844 41.648438 C 173.148438 41.140625 172.179688 40.6875 171.1875 40.285156 C 170.203125 39.882812 169.191406 39.539062 168.160156 39.257812 C 170.855469 38.960938 174.921875 38.992188 178.734375 40.917969 Z M 175.761719 24.527344 C 175.59375 24.492188 175.429688 24.597656 175.390625 24.765625 L 175.386719 24.777344 C 175.121094 25.957031 174.75 27.140625 174.328125 28.289062 C 173.902344 29.4375 173.402344 30.558594 172.84375 31.644531 C 172.289062 32.734375 171.636719 33.761719 170.929688 34.746094 C 170.554688 35.269531 170.148438 35.761719 169.71875 36.234375 C 169.933594 33.800781 170.550781 29.109375 172.332031 24.683594 C 174.003906 20.523438 177.972656 16.539062 179.816406 14.835938 C 179.921875 17.949219 179.964844 25.832031 177.980469 29.707031 C 176.53125 32.539062 173.613281 34.660156 171.441406 35.933594 C 171.574219 35.75 171.707031 35.566406 171.832031 35.375 C 172.53125 34.3125 173.164062 33.210938 173.6875 32.058594 C 174.21875 30.914062 174.679688 29.742188 175.066406 28.546875 C 175.449219 27.34375 175.773438 26.140625 176 24.886719 C 176.027344 24.722656 175.925781 24.566406 175.761719 24.527344 Z M 197.804688 33.339844 C 202.84375 34.691406 205.859375 37.816406 207.042969 39.277344 C 204.5625 39.679688 197.976562 40.570312 193.339844 39.617188 C 189.429688 38.8125 186.1875 36.222656 184.039062 34.507812 C 183.84375 34.351562 183.664062 34.207031 183.484375 34.066406 C 185.5 34.246094 187.507812 34.558594 189.5 34.972656 C 192.257812 35.550781 195.003906 36.289062 197.664062 37.207031 L 197.671875 37.210938 C 197.832031 37.261719 198.003906 37.183594 198.0625 37.027344 C 198.125 36.867188 198.046875 36.6875 197.886719 36.625 C 195.214844 35.589844 192.488281 34.746094 189.707031 34.054688 C 188.273438 33.699219 186.820312 33.394531 185.351562 33.152344 C 188.789062 32.652344 193.796875 32.261719 197.804688 33.339844 Z M 186.273438 29.964844 C 186.375 29.835938 186.476562 29.710938 186.574219 29.578125 C 187.46875 28.40625 188.277344 27.171875 188.992188 25.890625 C 189.714844 24.613281 190.363281 23.296875 190.925781 21.945312 C 191.488281 20.589844 191.976562 19.21875 192.359375 17.789062 C 192.398438 17.628906 192.308594 17.460938 192.148438 17.410156 C 191.984375 17.363281 191.8125 17.453125 191.761719 17.617188 L 191.757812 17.632812 C 191.34375 18.984375 190.808594 20.332031 190.210938 21.628906 C 189.613281 22.933594 188.929688 24.195312 188.183594 25.414062 C 187.441406 26.632812 186.609375 27.796875 185.710938 28.894531 C 185.179688 29.570312 184.59375 30.195312 183.992188 30.800781 C 184.328125 27.695312 185.304688 21 187.695312 17.023438 C 190.105469 13.019531 195.796875 8.820312 198.160156 7.335938 C 198.128906 7.519531 198.09375 7.726562 198.058594 7.964844 C 197.570312 10.980469 196.558594 17.253906 193.785156 22.210938 C 191.773438 25.808594 188.652344 28.382812 186.273438 29.964844 Z M 212.550781 19.484375 C 209 22.554688 202.859375 24.179688 199.242188 24.910156 C 199.753906 24.578125 200.261719 24.242188 200.761719 23.898438 C 205.351562 20.726562 209.667969 17.214844 213.765625 13.441406 C 213.933594 13.289062 213.945312 13.027344 213.792969 12.859375 C 213.640625 12.691406 213.378906 12.675781 213.210938 12.828125 L 213.203125 12.835938 C 209.101562 16.519531 204.75 19.964844 200.175781 23.035156 C 199.402344 23.566406 198.605469 24.070312 197.808594 24.558594 C 199.21875 21.703125 202.425781 15.933594 206.886719 12.238281 C 210.890625 8.921875 219.492188 7.351562 222.84375 6.90625 C 221.121094 9.453125 216.78125 15.824219 212.550781 19.484375 Z M 212.550781 19.484375 " fill-opacity="1" fill-rule="nonzero"/></g></g></g></svg>