<?xml version="1.0" encoding="UTF-8"?>
<!DOCTYPE svg PUBLIC "-//W3C//DTD SVG 1.1//EN" "http://www.w3.org/Graphics/SVG/1.1/DTD/svg11.dtd">
<!-- Creator: CorelDRAW 2021.5 -->
<svg xmlns="http://www.w3.org/2000/svg" xml:space="preserve" width="937px" height="329px" version="1.1" style="shape-rendering:geometricPrecision; text-rendering:geometricPrecision; image-rendering:optimizeQuality; fill-rule:evenodd; clip-rule:evenodd"
viewBox="0 0 925.69 325.02"
 xmlns:xlink="http://www.w3.org/1999/xlink"
 xmlns:xodm="http://www.corel.com/coreldraw/odm/2003">
 <defs>
  <style type="text/css">
   <![CDATA[
    .fil1 {fill:none}
    .fil0 {fill:#B7B3E9;fill-rule:nonzero}
   ]]>
  </style>
    <clipPath id="id0">
     <path d="M0 325.02l925.69 0 0 -325.02 -925.69 0 0 325.02z"/>
    </clipPath>
 </defs>
 <g id="Layer_x0020_1">
  <metadata id="CorelCorpID_0Corel-Layer"/>
  <g id="_1857333866192">
   <g>
   </g>
   <g style="clip-path:url(#id0)">
    <g>
     <path class="fil0" d="M923.32 22.93c-2.5,-1.22 -54.46,6.01 -75.46,23.43 -24.87,20.61 -40.09,54.97 -41.97,59.34 -7.84,4.43 -15.89,8.5 -24.07,12.36 7.18,-6.3 14.46,-14.29 19.98,-24.14 11.86,-21.2 16.11,-47.64 18.16,-60.33 0.49,-3.02 0.99,-6.14 1.19,-6.67 0.72,-1.24 0.32,-3.02 -0.91,-3.76 -4.62,-2.77 -40.77,24.75 -52.48,44.21 -12.31,20.47 -15.82,55.86 -16.47,64.17 -10.15,4.23 -20.38,8.26 -30.67,12.1 6.27,-5.09 12.34,-11.46 16.23,-19.06 10.93,-21.29 8.01,-67.32 7.88,-69.26 -0.07,-0.97 -0.66,-1.82 -1.56,-2.21 -0.9,-0.4 -1.93,-0.24 -2.69,0.39 -1.07,0.9 -26.74,22.32 -36.3,46.12 -4.18,10.38 -6.83,20.94 -8.53,30.09 -0.13,-0.34 -0.29,-0.66 -0.5,-0.98 -2.19,-3.31 -6.73,-3.83 -13.87,-1.58 -1.88,0.6 -3.73,1.43 -5.43,2.3 1.78,-3.39 2.78,-5.88 3.2,-7.04 2.02,-1.11 7.92,-4.74 11.37,-11.52 2.99,-5.87 3.85,-10.98 2.43,-14.4 -0.77,-1.85 -2.17,-3.15 -4.03,-3.75 -1.69,-0.54 -3.49,-0.33 -5.19,0.61 -3.25,1.81 -6.1,6.19 -7.43,11.45 -1.53,6.06 -0.8,14.14 -0.59,16.08 -0.33,0.87 -1.3,3.38 -3.2,6.9 -0.1,-1.99 -0.31,-4.15 -0.76,-6.19 -1.6,-7.31 -4.32,-10.99 -8.29,-11.22 -1.69,-0.11 -3.1,0.57 -4.07,1.9 -1.86,2.56 -1.73,7.3 0.37,12.68 2.03,5.21 5.92,8.68 8.14,10.35 -2.16,3.13 -4.84,6.57 -8.14,10.16 0.26,-2.27 0.41,-4.89 0.2,-7.36 -0.61,-7.46 -2.8,-11.46 -6.7,-12.25 -1.64,-0.31 -3.17,0.16 -4.3,1.35 -2.2,2.28 -2.7,6.99 -1.33,12.6 0.19,0.82 0.47,1.58 0.76,2.3 -3.3,-0.29 -6.87,0.14 -10.21,0.87 4.13,-5.4 6.56,-10.8 8.36,-14.85 0.72,-1.64 1.36,-3.09 2.01,-4.28 2,-3.71 1.62,-8.05 0.11,-12.39 1.46,-2.14 2.88,-4.26 4.23,-6.32 0.01,-0.01 0.01,-0.01 0.03,-0.01 9.16,-15.07 22.66,-20.44 31.85,-22.36 0.26,0.74 0.58,1.47 1.01,2.16 1.51,2.44 3.91,4.16 6.72,4.82 0.82,0.19 1.66,0.29 2.49,0.29 1.98,0 3.94,-0.55 5.68,-1.62 2.45,-1.53 4.16,-3.91 4.82,-6.72 1.36,-5.8 -2.25,-11.64 -8.06,-13 -2.81,-0.66 -5.7,-0.18 -8.16,1.33 -2.46,1.53 -4.18,3.92 -4.84,6.73 -0.06,0.31 -0.08,0.63 -0.11,0.94 -5.53,1.09 -12.49,3.36 -19.36,7.82 2.53,-4.46 4.8,-8.68 6.79,-12.61 8.34,-10.43 17.47,-17.13 24.04,-21.06 0.57,0.68 1.19,1.31 1.93,1.84 1.85,1.33 4.04,2.02 6.27,2.02 0.6,0 1.19,-0.05 1.79,-0.14 2.84,-0.47 5.35,-2.03 7.02,-4.37 1.69,-2.35 2.34,-5.21 1.88,-8.06 -0.47,-2.86 -2.03,-5.35 -4.37,-7.04 -2.35,-1.67 -5.19,-2.33 -8.05,-1.88 -2.85,0.49 -5.36,2.03 -7.03,4.38 -1.68,2.34 -2.36,5.2 -1.88,8.06 0.03,0.21 0.11,0.42 0.16,0.63 -4.27,2.52 -9.59,6.19 -15.14,11.22 3.93,-9.5 6.03,-16.84 7.16,-22.18 2.89,-0.35 5.64,-1.8 7.45,-4.36 3.47,-4.83 2.36,-11.6 -2.49,-15.07 -2.34,-1.69 -5.21,-2.36 -8.05,-1.88 -2.84,0.47 -5.35,2.02 -7.02,4.37 -3.47,4.84 -2.37,11.6 2.47,15.07l0.02 0c0.79,0.57 1.62,0.99 2.49,1.32 -1.83,8.39 -6.28,22.28 -16.99,42.04 0.42,-12.23 -3.55,-22.19 -7.34,-28.76 0.21,-0.24 0.45,-0.47 0.63,-0.73 3.47,-4.83 2.36,-11.6 -2.48,-15.09 -4.85,-3.47 -11.62,-2.34 -15.09,2.49 -1.69,2.35 -2.35,5.21 -1.88,8.07 0.46,2.85 2.02,5.34 4.37,7.03 1.85,1.33 4.03,2.02 6.27,2.02 0.59,0 1.19,-0.05 1.78,-0.14 0.81,-0.13 1.56,-0.37 2.28,-0.66 4.6,8.11 9.39,21.71 4.25,38.37 -2.96,4.89 -6.32,10.13 -10,15.61 -4.85,-8.82 -12.73,-16.36 -12.86,-16.49 -5.57,-5.17 -17.29,-3.13 -29.84,-0.39 -1.24,0.28 -2.35,0.52 -3.29,0.71 -9.16,1.83 -14.4,13.65 -17.28,23.93 -0.18,-0.53 -0.34,-1.08 -0.53,-1.57 -4.41,-11.3 -11.61,-14.93 -16.86,-17.59 -1.43,-0.72 -2.78,-1.39 -3.9,-2.13 -7.2,-4.78 -21.94,-2.53 -29.35,1.2 -6.25,3.15 -9.06,8.36 -11.3,14.19 -6.64,-2.6 -12.65,-2.99 -15.28,-3 -1.53,-1.46 -3.09,-3.04 -4.71,-4.68 -5.75,-5.82 -11.7,-11.83 -17.49,-13.93 -5.32,-1.93 -11.47,0.96 -18.53,4.55 -3.74,-1.37 -14.44,-4.63 -24.26,-1.92 -2.43,0.68 -4.89,1.27 -7.38,1.87 -8.82,2.15 -17.97,4.35 -27.37,10.25 -1.07,0.66 -2.12,1.4 -3.15,2.17 -2.01,-3.87 -4.71,-7.23 -9.22,-9.5 -7.4,-3.71 -22.13,-5.98 -29.35,-1.2 -1.11,0.74 -2.46,1.41 -3.89,2.13 -5.27,2.66 -12.47,6.29 -16.86,17.59 -0.19,0.49 -0.37,1.04 -0.54,1.57 -2.88,-10.28 -8.1,-22.1 -17.26,-23.93 -0.95,-0.19 -2.08,-0.43 -3.3,-0.71 -12.55,-2.74 -24.28,-4.77 -29.84,0.39 -0.11,0.1 -5.32,5.08 -9.87,11.65 0.93,-2.18 1.78,-4.39 2.4,-6.67 0.98,-3.44 1.65,-6.94 2.08,-10.46 0.18,-0.13 0.37,-0.22 0.52,-0.4 0.13,-0.13 0.18,-0.31 0.27,-0.45 4.89,-4.12 21.1,-18.52 18.74,-27.23 -1.49,-5.49 -3.89,-7.69 -5.64,-9.3 -1.11,-1.03 -1.67,-1.56 -2.02,-2.57 -0.15,-0.44 -0.33,-0.97 -0.5,-1.53 -1.64,-5.05 -5.03,-15.52 -13.04,-13.66 -4.9,1.17 -6.47,5.38 -7.85,9.1 -0.79,2.1 -1.6,4.26 -2.96,5.91l-1.79 2.14c-5.44,6.52 -8.72,10.46 -5.44,17.47 4.09,8.74 13,17.27 15.54,19.6 0.03,0.05 0.04,0.1 0.08,0.15 -0.6,3.34 -1.45,6.62 -2.54,9.79 -0.73,2.25 -1.69,4.38 -2.75,6.47 -1.72,-2.44 -3.41,-4.93 -4.98,-7.5 -4.04,-6.33 -7.62,-12.99 -10.85,-19.8 -2.62,-5.48 -4.9,-11.12 -7.01,-16.84 0,0 0,0 0.02,0 0.08,-0.17 0.08,-0.36 0.13,-0.54 3.6,-5.27 15.3,-23.51 10.67,-31.25 -2.93,-4.9 -5.83,-6.37 -7.96,-7.44 -1.35,-0.68 -2.02,-1.05 -2.63,-1.93 -0.28,-0.39 -0.58,-0.84 -0.92,-1.34 -2.94,-4.42 -9.06,-13.58 -16.23,-9.61 -4.39,2.45 -4.77,6.93 -5.1,10.88 -0.19,2.24 -0.38,4.54 -1.25,6.5l-1.12 2.54c-3.47,7.76 -5.58,12.43 -0.53,18.28 6.31,7.32 17.19,13.12 20.28,14.68 0.24,0.25 0.53,0.45 0.88,0.59 1.91,5.88 4.05,11.72 6.53,17.39 2.6,6.01 5.54,11.89 8.76,17.61 -6.37,-1.12 -12.67,-3.53 -18.68,-6.49 0,-0.01 0,-0.01 0,-0.01 -0.05,-0.18 -0.16,-0.33 -0.26,-0.49 -0.88,-6.33 -4.53,-27.69 -13.17,-30.29 -5.45,-1.64 -8.6,-0.76 -10.9,-0.13 -1.45,0.4 -2.19,0.6 -3.23,0.36 -0.47,-0.1 -1,-0.23 -1.58,-0.39 -5.15,-1.27 -15.86,-3.92 -18.48,3.86 -1.59,4.75 1.14,8.32 3.57,11.47 1.37,1.77 2.78,3.62 3.46,5.64l0.45 1.35c-10.37,-13.11 -21.64,-22.56 -22.36,-23.14 -0.74,-0.63 -1.78,-0.77 -2.67,-0.39 -0.9,0.39 -1.51,1.24 -1.57,2.21 -0.13,1.94 -3.04,47.97 7.87,69.26 3.89,7.6 9.97,13.97 16.25,19.06 -10.3,-3.84 -20.52,-7.87 -30.66,-12.12 -0.68,-8.29 -4.18,-43.68 -16.49,-64.15 -11.7,-19.46 -47.88,-46.99 -52.49,-44.21 -1.28,0.77 -1.67,2.41 -0.96,3.61 0.27,0.68 0.77,3.8 1.25,6.82 2.04,12.69 6.3,39.11 18.18,60.33 5.49,9.83 12.77,17.84 19.97,24.14 -8.18,-3.86 -16.25,-7.94 -24.09,-12.36 -1.86,-4.37 -17.08,-38.73 -41.96,-59.34 -21,-17.42 -72.94,-24.62 -75.47,-23.43 -0.91,0.45 -1.48,1.38 -1.46,2.41 0.02,0.69 0.32,1.34 0.8,1.8 0.36,0.47 1.42,2.03 2.53,3.67 6.94,10.27 25.39,37.52 43.61,53.27 22.71,19.66 67.53,25.38 69.43,25.62 0.11,0.02 0.21,0.02 0.32,0.02 0.02,0 0.03,-0.02 0.03,-0.02 3.83,2.25 7.67,4.42 11.59,6.46 9.79,5.09 19.72,9.83 29.75,14.38 -14.18,-1.73 -32.79,-2.58 -48.41,1.61 -29.47,7.91 -42.89,29.03 -43.45,29.91 -0.45,0.72 -0.52,1.62 -0.18,2.41 0.35,0.79 1.04,1.35 1.88,1.51 1.12,0.23 20.76,3.97 40.95,3.97 7.41,0 14.9,-0.5 21.57,-1.88 17.29,-3.55 31.22,-14.69 40.45,-22.05 3.43,-2.75 6.47,-5.16 8.48,-6.2 13.44,5.64 27.02,10.97 40.74,15.92 -10.01,0.29 -21.65,2.24 -32.98,7.97 -28.46,14.37 -35.55,42.09 -35.83,43.27 -0.2,0.75 -0.02,1.57 0.46,2.2 0.48,0.63 1.22,1 2.01,1.01 0.08,0 0.31,0 0.66,0 3.28,0 17.58,-0.27 33.38,-4.63 0.02,0.02 0.02,0.05 0.03,0.07 0.56,0.69 13.89,16.52 30.17,21.53 4.35,1.35 8.46,1.85 12.18,1.85 -10.58,5.06 -16.86,8.69 -18.4,9.59 -2.93,0.28 -19.29,2.08 -30.99,10.95 -17.56,13.29 -20.62,34.07 -20.73,34.94 -0.02,0.05 0.02,0.09 0,0.13 0,0.2 0.02,0.4 0.06,0.59 0.02,0.08 0.02,0.15 0.05,0.23 0.1,0.24 0.24,0.48 0.45,0.67 0.02,0.02 0.02,0.02 0.02,0.02 0.16,0.16 0.35,0.27 0.54,0.35 0.02,0 0.04,0.02 0.05,0.02 0.21,0.09 0.45,0.14 0.68,0.14 0.14,0 0.27,-0.02 0.4,-0.05 0.95,-0.21 23.13,-5.11 35.5,-17.72 11.31,-11.53 15.28,-23.95 16.18,-27.2 2.03,-1.18 8.92,-5.11 20.24,-10.43 -5,4.54 -10.21,10.19 -12.73,15.9 -5.5,12.42 -4.79,29.39 -4.76,30.11 0,0.02 0.02,0.05 0.02,0.07 0.03,0.29 0.11,0.56 0.26,0.82 0.03,0.03 0.08,0.06 0.11,0.11 0.09,0.15 0.19,0.29 0.35,0.4 0.05,0.05 0.11,0.07 0.16,0.1 0.03,0.02 0.05,0.05 0.07,0.06 0.03,0.02 0.08,0.02 0.11,0.04 0.26,0.11 0.53,0.21 0.8,0.21 0,0 0,-0.02 0.02,-0.02 0.29,0 0.59,-0.08 0.85,-0.23 0.02,0 0.05,0 0.06,-0.01 0.76,-0.44 18.69,-10.77 26.49,-25.94 6.4,-12.47 4.58,-24.15 3.55,-28.45 6.57,-2.76 13.95,-5.7 22.15,-8.67 0.54,-0.12 1.03,-0.25 1.54,-0.36 -5.58,5.15 -12.36,12.42 -15.09,19.56 -4.89,12.68 -3.34,29.62 -3.26,30.33 0,0.01 0.01,0.04 0.01,0.06 0.04,0.29 0.13,0.55 0.29,0.8 0.03,0.04 0.08,0.07 0.12,0.12 0.11,0.14 0.22,0.27 0.36,0.38 0.05,0.03 0.1,0.02 0.13,0.05 0.05,0.02 0.08,0.06 0.13,0.1 0.26,0.13 0.53,0.19 0.82,0.19 0.34,0 0.64,-0.11 0.93,-0.27 0.02,-0.02 0.05,-0.02 0.08,-0.02 0.74,-0.48 18.13,-11.68 25.17,-27.22 5.69,-12.6 3.44,-24.03 2.2,-28.4 1.35,-0.45 2.8,-0.9 4.21,-1.35 -2.58,7.89 -3.44,15.46 -1.99,21 1.08,4.13 3.38,7.2 6.64,8.87 7.87,4.04 15.99,0.76 22.59,3.46l1.06 0.43c1.51,0.63 3.25,1.34 5.13,2.01 -6.69,20.19 -3.41,36.47 -3.21,37.37 0.01,0.06 0.04,0.11 0.06,0.17 0.05,0.15 0.1,0.26 0.16,0.41 0.1,0.17 0.19,0.35 0.31,0.51 0.08,0.11 0.17,0.21 0.27,0.31 0.16,0.16 0.34,0.29 0.53,0.4 0.08,0.05 0.11,0.11 0.19,0.14 0.03,0.02 0.08,0.02 0.12,0.03 0.35,0.15 0.72,0.26 1.1,0.26 0.15,0 0.31,-0.01 0.45,-0.03 1.15,-0.19 24.45,-4.08 42.93,-20.54 -3.49,28.54 13.15,51.8 15.51,54.93l5.05 0c3.76,-3.77 22.01,-23.39 29.56,-56.31 4.99,3.2 11.01,5.78 18.21,6.68 5.74,0.73 10.11,1.02 13.54,1.02 7.2,0 10.26,-1.29 13.27,-2.53 1.46,-0.61 2.7,-1.12 4.52,-1.46 2.54,-0.48 5.35,0 8.63,0.56 5.51,0.95 11.76,2.03 18.85,-1.23 5.49,-2.54 9.4,-7.78 12.55,-13.07 0.24,-0.03 0.46,-0.1 0.72,-0.13 0.26,1.83 0.53,3.67 0.9,5.61 6.83,35.8 26.73,57.01 30.61,60.86l5.04 0c2.35,-3.13 18.94,-26.44 15.44,-55.01 18.48,16.52 41.85,20.43 43.01,20.62 0.14,0.02 0.29,0.03 0.43,0.03 0.4,0 0.76,-0.11 1.11,-0.26 0.03,-0.01 0.08,-0.01 0.13,-0.03 0.06,-0.03 0.11,-0.09 0.19,-0.14 0.19,-0.11 0.37,-0.24 0.53,-0.4 0.1,-0.1 0.18,-0.2 0.26,-0.31 0.13,-0.16 0.22,-0.34 0.3,-0.53 0.07,-0.13 0.13,-0.24 0.17,-0.39 0.01,-0.06 0.06,-0.11 0.08,-0.17 0.19,-0.9 3.47,-17.2 -3.2,-37.38 1.86,-0.66 3.58,-1.37 5.11,-2l1.04 -0.43c6.61,-2.7 14.74,0.6 22.6,-3.46 3.28,-1.67 5.56,-4.74 6.64,-8.87 1.46,-5.54 0.59,-13.13 -1.98,-21.02 1.4,0.45 2.83,0.9 4.21,1.37 -1.25,4.37 -3.49,15.8 2.2,28.4 7.02,15.54 24.43,26.74 25.17,27.22 0.01,0 0.05,0 0.08,0.02 0.27,0.16 0.59,0.27 0.92,0.27 0,0 0,0 0.01,0 0.27,0 0.56,-0.06 0.82,-0.19 0.05,-0.04 0.06,-0.08 0.11,-0.1 0.05,-0.03 0.1,-0.02 0.13,-0.05 0.16,-0.11 0.26,-0.24 0.37,-0.38 0.05,-0.05 0.08,-0.08 0.11,-0.12 0.16,-0.25 0.26,-0.51 0.31,-0.8 0,-0.02 0.02,-0.05 0.02,-0.06 0.06,-0.71 1.6,-17.65 -3.27,-30.33 -2.75,-7.14 -9.51,-14.41 -15.09,-19.56 0.52,0.11 1,0.24 1.55,0.36 8.19,2.97 15.57,5.91 22.12,8.67 -1.01,4.3 -2.82,15.98 3.57,28.45 7.8,15.17 25.72,25.5 26.49,25.94 0.01,0.01 0.03,0.01 0.05,0.01 0.27,0.15 0.56,0.23 0.86,0.23 0,0 0,0.02 0.02,0.02 0.27,0 0.55,-0.1 0.8,-0.21 0.03,-0.02 0.07,-0.02 0.1,-0.04 0.03,-0.01 0.03,-0.04 0.06,-0.06 0.05,-0.03 0.12,-0.05 0.18,-0.1 0.14,-0.11 0.26,-0.25 0.35,-0.4 0.04,-0.05 0.08,-0.08 0.1,-0.11 0.16,-0.26 0.24,-0.53 0.26,-0.82 0,-0.02 0.01,-0.05 0.01,-0.07 0.04,-0.72 0.74,-17.69 -4.75,-30.11 -2.53,-5.71 -7.72,-11.36 -12.72,-15.9 11.3,5.32 18.2,9.25 20.24,10.43 0.88,3.25 4.87,15.67 16.17,27.2 12.37,12.61 34.56,17.51 35.5,17.72 0.14,0.03 0.27,0.05 0.4,0.05 0.24,0 0.46,-0.05 0.69,-0.14 0.01,0 0.01,-0.02 0.03,-0.02 0.21,-0.08 0.39,-0.19 0.56,-0.35 0,0 0,0 0,-0.02 0,0 0.02,0 0.02,0 0.21,-0.19 0.34,-0.43 0.43,-0.67 0.04,-0.08 0.04,-0.15 0.05,-0.23 0.05,-0.19 0.08,-0.39 0.07,-0.59 0,-0.04 0.01,-0.08 0.01,-0.13 -0.13,-0.87 -3.18,-21.65 -20.73,-34.94 -11.72,-8.87 -28.06,-10.67 -30.98,-10.93 -1.55,-0.92 -7.85,-4.55 -18.42,-9.61 3.73,0 7.84,-0.5 12.18,-1.85 16.3,-5.01 29.6,-20.84 30.17,-21.53 0.01,-0.02 0.01,-0.05 0.03,-0.07 15.81,4.36 30.11,4.63 33.38,4.63 0.35,0 0.58,0 0.67,0 0.79,-0.01 1.53,-0.38 2.01,-1.01 0.48,-0.63 0.64,-1.45 0.47,-2.2 -0.29,-1.18 -7.38,-28.9 -35.86,-43.27 -11.33,-5.73 -22.96,-7.68 -32.96,-7.97 13.73,-4.95 27.31,-10.28 40.74,-15.92 2.01,1.04 5.03,3.45 8.49,6.2 9.21,7.36 23.14,18.5 40.43,22.05 6.69,1.38 14.16,1.88 21.58,1.88 20.19,0 39.83,-3.74 40.94,-3.97 0.83,-0.16 1.54,-0.72 1.88,-1.51 0.33,-0.79 0.27,-1.69 -0.18,-2.41 -0.55,-0.88 -13.98,-22 -43.44,-29.91 -15.62,-4.19 -34.25,-3.34 -48.41,-1.61 10.02,-4.55 19.97,-9.29 29.75,-14.38 3.92,-2.04 7.76,-4.21 11.57,-6.46 0.02,0 0.04,0.02 0.05,0.02 0.1,0 0.21,0 0.32,-0.02 1.9,-0.24 46.7,-5.96 69.43,-25.62 18.21,-15.75 36.66,-43 43.6,-53.27 1.13,-1.64 2.17,-3.2 2.52,-3.67 0.5,-0.46 0.79,-1.11 0.81,-1.8 0.03,-1.03 -0.55,-1.96 -1.47,-2.41zm-640.86 48.2c-1.2,-3.39 -2.1,-7.01 -2.76,-10.58l-0.02 -0.04c-0.11,-0.66 -0.7,-1.14 -1.4,-1.11 -0.73,0.05 -1.3,0.67 -1.27,1.43 0.2,3.13 0.6,6.23 1.18,9.33 -2.27,-2.78 -4.45,-5.88 -5.88,-8.95 -1.76,-3.72 -0.68,-5.22 4.69,-11.65l1.8 -2.17c1.94,-2.36 2.96,-5.08 3.86,-7.47 1.38,-3.7 2.13,-5.26 4,-5.69 0.14,-0.03 0.29,-0.05 0.43,-0.05 2.88,0 5.06,6.75 6.16,10.08 0.19,0.61 0.38,1.17 0.54,1.64 0.82,2.34 2.24,3.65 3.47,4.79 1.55,1.41 2.99,2.75 4.07,6.71 0.74,2.72 -3.65,8.75 -9.56,14.76 0.9,-3.41 1.62,-6.82 2.22,-10.29 0.11,-0.66 -0.29,-1.3 -0.95,-1.51 -0.71,-0.21 -1.47,0.19 -1.67,0.9l-0.02 0.03c-1.01,3.36 -2.2,6.74 -3.54,9.97 -0.01,0.06 -0.04,0.11 -0.08,0.17 0,-0.56 0.02,-1.14 0,-1.72 -0.19,-4.14 -0.62,-8.22 -1.46,-12.35 -0.14,-0.69 -0.8,-1.18 -1.51,-1.06 -0.74,0.09 -1.25,0.78 -1.14,1.52l0.02 0.07c0.56,3.85 0.75,7.92 0.72,11.89 -0.03,1.73 -0.13,3.49 -0.27,5.22 -0.6,-1.24 -1.15,-2.52 -1.63,-3.87zm-28.65 -39.63c-0.74,-0.02 -1.37,0.58 -1.38,1.32l0 0.03c-0.07,3.52 -0.29,7.08 -0.71,10.56 -0.08,0.69 -0.18,1.4 -0.27,2.09 -1.66,-5.31 -3.07,-10.68 -4.1,-16.04l-0.02 -0.08c-0.16,-0.81 -0.93,-1.35 -1.75,-1.23 -0.84,0.13 -1.4,0.92 -1.27,1.76 0.9,5.7 2.15,11.25 3.65,16.73 -0.48,-0.61 -0.97,-1.26 -1.43,-1.9 -2.07,-2.94 -3.92,-6.19 -5.53,-9.45l-0.02 -0.05c-0.3,-0.59 -0.99,-0.9 -1.65,-0.67 -0.69,0.24 -1.08,1.01 -0.82,1.7 1.03,2.99 2.25,5.85 3.65,8.68 -2.93,-2.06 -5.87,-4.45 -8.1,-7.02 -2.69,-3.12 -2.06,-4.84 1.38,-12.49l1.14 -2.57c1.24,-2.78 1.48,-5.68 1.69,-8.23 0.34,-3.94 0.62,-5.64 2.31,-6.57 0.29,-0.16 0.6,-0.24 0.92,-0.24 2.71,0 6.31,5.38 8.13,8.09 0.37,0.55 0.69,1.05 0.98,1.45 1.43,2.04 3.13,2.91 4.63,3.67 1.86,0.94 3.63,1.83 5.75,5.36 1.43,2.41 -1.15,9.42 -5.22,16.8 -0.05,-3.52 -0.27,-6.99 -0.66,-10.5 -0.06,-0.66 -0.63,-1.19 -1.3,-1.2zm-202.58 48.66c-17.4,-15.06 -35.27,-41.27 -42.36,-51.75 13.79,1.83 49.19,8.3 65.67,21.94 18.33,15.2 31.54,38.94 37.34,50.69 -3.29,-2.01 -6.55,-4.09 -9.75,-6.27 -18.8,-12.63 -36.71,-26.81 -53.58,-41.96l-0.03 -0.03c-0.69,-0.63 -1.77,-0.57 -2.4,0.11 -0.64,0.69 -0.59,1.77 0.1,2.41 16.87,15.54 34.63,29.97 53.52,43.02 2.05,1.42 4.14,2.8 6.23,4.16 -14.88,-3 -40.13,-9.69 -54.74,-22.32zm132.72 172.38c6.89,-5.21 15.75,-7.81 21.95,-9.08 -5.08,3.78 -12.36,9.32 -18.35,14.51 -6.75,5.87 -15.75,14.87 -21.23,20.46 2.23,-6.96 7.18,-17.97 17.63,-25.89zm12.07 13.69c-7.6,7.76 -19.63,12.5 -27.05,14.85 5.43,-5.53 14.37,-14.48 21.04,-20.27 6.51,-5.64 14.59,-11.73 19.6,-15.41 -2.05,5.16 -6.14,13.23 -13.59,20.83zm545.72 -13.69c10.44,7.92 15.41,18.93 17.63,25.89 -5.47,-5.59 -14.47,-14.59 -21.22,-20.46 -5.99,-5.19 -13.29,-10.75 -18.36,-14.51 6.18,1.27 15.05,3.85 21.95,9.08zm-6.04 8.27c6.66,5.79 15.6,14.74 21.02,20.29 -7.41,-2.37 -19.42,-7.09 -27.05,-14.87 -7.43,-7.57 -11.51,-15.65 -13.57,-20.81 5.02,3.68 13.09,9.75 19.6,15.39zm-64.58 -123.56c2.01,0.88 5.74,2.2 10.14,2.2 1,0 2.05,-0.07 3.11,-0.23 4.91,-0.75 8.69,-2.52 10.46,-4.85 -1.4,8.68 -1.93,15.6 -2.11,19.06 -7.04,2.33 -14.11,4.53 -21.21,6.57 -0.63,-0.95 -1.32,-1.86 -2.06,-2.75 0.11,0 0.21,0.02 0.32,0.02 0.1,0 0.21,0 0.32,0 5.77,-0.1 10.21,-1.75 11.88,-4.45 0.85,-1.4 0.93,-2.99 0.21,-4.5 -1.72,-3.57 -6.14,-4.7 -13.53,-3.43 -1.46,0.26 -2.94,0.66 -4.36,1.1 2.67,-3.06 4.97,-6.03 6.83,-8.74zm-18.69 12.69c1.13,1.01 2.33,2.03 3.55,3.09 6.87,5.83 13.95,11.87 12.25,18.59 -2.36,9.4 -6.12,17.2 -9.82,20.33 -1.35,1.13 -8.97,3.7 -18.18,2.86 -5.33,-0.51 -12.76,-2.39 -17.77,-8.58 0,0 -0.02,-0.02 -0.03,-0.02 -3.52,-4.11 -7.22,-7.36 -10.56,-9.82 3.57,1.32 7.1,2.9 10.38,4.75l0.07 0.03c0.59,0.33 1.33,0.17 1.75,-0.39 0.41,-0.61 0.29,-1.45 -0.33,-1.88 -3.53,-2.54 -7.21,-4.69 -11.12,-6.59 -1.84,-0.9 -3.76,-1.72 -5.7,-2.44 0.77,0.13 1.54,0.27 2.31,0.42 2.98,0.59 5.97,1.3 8.94,2.04 5.94,1.52 11.87,3.21 17.76,5.04 0.66,0.21 1.4,-0.12 1.65,-0.78 0.28,-0.69 -0.06,-1.48 -0.75,-1.75 -5.79,-2.29 -11.61,-4.42 -17.52,-6.42 -2.96,-0.98 -5.93,-1.91 -8.97,-2.76 -0.17,-0.05 -0.35,-0.1 -0.51,-0.15 1.73,-0.21 3.49,-0.4 5.27,-0.54 4.76,-0.36 9.58,-0.55 14.37,-0.61 0.67,0 1.28,-0.53 1.33,-1.22 0.06,-0.76 -0.48,-1.4 -1.22,-1.47 -4.87,-0.4 -9.71,-0.66 -14.59,-0.77 -1.39,-0.03 -2.78,0.02 -4.17,0.03 6.9,-2.02 12.44,-4.8 16.91,-7.98 7.22,-3.3 20.24,-7.01 24.7,-3.01zm19.3 43.75c7.88,-1.55 17.2,-0.34 23.03,0.75 -8.85,3.54 -27.48,10.26 -46.97,12.87 5.62,-4.66 15.57,-12.02 23.94,-13.62zm-70.4 -97.73c0.98,-0.19 2.13,-0.43 3.4,-0.72 6.71,-1.47 20.64,-4.52 24.27,-1.15 6.4,5.95 17.44,20.37 13.97,26.78 -0.71,1.32 -1.43,2.91 -2.24,4.71 -4.26,9.59 -11.26,25.29 -36.88,30.68 1.59,-1.48 3.07,-3.02 4.48,-4.62 2.59,-2.9 4.95,-5.91 7.19,-9.09 0.38,-0.53 0.32,-1.29 -0.2,-1.75 -0.54,-0.52 -1.39,-0.47 -1.89,0.08l-0.03 0.03c-4.38,4.76 -9.23,9.38 -14.44,12.76 -0.35,-0.34 -0.75,-0.66 -1.15,-0.97 0.83,-4.24 2.52,-8.61 4.42,-12.8 2.23,-4.87 4.85,-9.68 7.65,-14.27l0.01 -0.04c0.36,-0.59 0.21,-1.36 -0.35,-1.78 -0.6,-0.43 -1.45,-0.31 -1.88,0.29 -3.28,4.5 -6.3,9.08 -9.05,13.95 -1.37,2.42 -2.68,4.9 -3.81,7.5 -0.62,1.45 -1.19,2.93 -1.69,4.44 -0.3,-0.11 -0.61,-0.21 -0.9,-0.31 0.08,-3.23 0.5,-6.55 1.05,-9.85 0.72,-4.16 1.65,-8.35 2.75,-12.44l0.01 -0.04c0.18,-0.65 -0.16,-1.36 -0.82,-1.6 -0.69,-0.27 -1.46,0.09 -1.73,0.78 -1.58,4.08 -2.98,8.18 -4.18,12.4 -0.89,3.2 -1.69,6.41 -2.17,9.82 -0.05,-0.01 -0.11,-0.01 -0.16,-0.01 0,-4.12 -0.15,-11.48 -0.97,-19.08 1.03,-8.5 5.89,-31.79 15.34,-33.7zm-16.97 59.12c0.65,-0.11 1.31,-0.16 1.97,-0.16 3.54,0 7.14,1.59 9.23,4.23 2.49,3.12 2.7,7.34 0.62,12.18 -1.35,3.15 -4.38,5.22 -8.11,5.53 -4,0.37 -7.86,-1.43 -9.84,-4.5 -2.42,-3.76 -2.95,-7.91 -1.44,-11.38 1.36,-3.13 4.13,-5.27 7.57,-5.9zm-49.36 -55.81c7.04,-3.55 18.92,-4.36 23.1,-1.59 1.43,0.95 2.94,1.7 4.53,2.52 5.08,2.56 10.32,5.19 13.85,14.27 3.26,8.38 4.03,22.41 4.2,30.7 -0.57,-1.53 -1.15,-3.07 -1.84,-4.53 -1.81,-3.84 -3.92,-7.43 -6.51,-10.85 -0.41,-0.53 -1.17,-0.69 -1.76,-0.34 -0.63,0.39 -0.84,1.21 -0.47,1.85l0.05 0.06c1.99,3.35 3.66,7.07 4.92,10.8 0.96,2.83 1.59,5.72 2.05,8.62 -2.74,-4.02 -5.7,-7.89 -9,-11.43 -4.21,-4.5 -8.69,-8.63 -13.78,-12.23 -0.57,-0.4 -1.37,-0.31 -1.82,0.24 -0.47,0.56 -0.39,1.42 0.18,1.88l0.06 0.07c4.48,3.69 8.61,8.1 12.28,12.69 3.18,3.99 5.93,8.26 8.4,12.68 -0.24,0.29 -0.45,0.58 -0.67,0.87 -2.3,-1.83 -4.68,-3.55 -7.2,-5.06 -1.83,-1.06 -3.7,-2.04 -5.63,-2.9 -1.96,-0.85 -3.85,-1.59 -6.04,-2.13 -0.66,-0.16 -1.33,0.19 -1.57,0.83 -0.28,0.69 0.08,1.47 0.77,1.72l0.09 0.05c1.72,0.64 3.54,1.58 5.23,2.56 1.68,0.99 3.32,2.08 4.9,3.26 2.36,1.8 4.53,3.81 6.59,5.93 -3.71,-0.72 -9.37,-1.54 -15.67,-2.06 -1.3,-0.16 -2.72,-0.37 -4.18,-0.59 -0.18,-1.37 -0.29,-2.69 -0.42,-3.99 -0.66,-7.31 -1.36,-14.86 -9.77,-29.15 -3.71,-6.33 -8.5,-10.56 -13.35,-13.4 1.96,-5.23 3.97,-9.08 8.48,-11.35zm31.53 125.47c-1.97,-2.45 -4.05,-4.97 -6.22,-7.53 2.45,-2.07 4.78,-4.53 6.88,-7.03 -0.69,5.06 -0.9,10.01 -0.66,14.56zm-16.77 -8.65c-3.33,0.24 -6.18,0.32 -8.68,0.3 0.69,-1.73 1.93,-3.34 3.5,-5.36 2.99,-3.83 6.7,-8.6 9.02,-17.38 1.22,-4.58 1.64,-8.24 1.6,-11.44 2.12,-0.98 4.23,-1.98 6.37,-2.89 2.25,-0.98 4.51,-1.88 6.78,-2.72 1.45,-0.53 2.91,-0.99 4.34,-1.38 0.09,0.16 0.19,0.35 0.29,0.52 0.22,0.33 0.46,0.62 0.69,0.93 -0.44,0.72 -0.92,1.46 -1.46,2.17 -0.87,1.19 -1.85,2.34 -2.86,3.48 -2.03,2.27 -4.23,4.49 -6.48,6.58l-0.02 0.01c-0.48,0.45 -0.58,1.19 -0.19,1.76 0.42,0.61 1.25,0.77 1.86,0.35 2.64,-1.82 5.18,-3.7 7.65,-5.77 1.15,-0.95 2.25,-1.95 3.35,-3.01 -1.95,3.73 -3.65,8.06 -5.03,12.65 -4.92,8.08 -14.73,20.77 -20.73,21.2zm3.95 -43.54c2.97,-0.59 5.96,-1.11 8.93,-1.46 1.79,-0.22 3.56,-0.37 5.29,-0.43 0.68,-0.02 1.35,-0.02 2.03,0.01 -1.19,0.48 -2.32,1 -3.46,1.53 -2.28,1.11 -4.52,2.25 -6.72,3.45 -1.65,0.9 -3.24,1.87 -4.83,2.83 -0.28,-2.07 -0.71,-4.01 -1.24,-5.93zm13.77 -6.63c-1.91,0.3 -3.76,0.7 -5.58,1.15 -3.05,0.77 -6.04,1.69 -8.99,2.69 -0.02,-0.02 -0.02,-0.05 -0.04,-0.07 -0.54,-1.85 -1.11,-3.73 -1.62,-5.86 0.98,0.06 1.94,0.11 2.89,0.19 0.32,0.05 0.56,0.06 0.66,0.08 0.11,0 0.21,0.02 0.32,0.02 0.02,0 0.03,-0.02 0.03,-0.02 5.37,0.47 10.13,1.11 13.25,1.69 -0.31,0.05 -0.61,0.08 -0.92,0.13zm-32.98 -38.75c7.7,13.1 8.28,19.35 8.94,26.58 0.26,2.8 0.53,5.71 1.22,9.11 0.68,3.36 1.51,6.16 2.23,8.62 1.88,6.31 3.25,10.88 0.68,20.57 -1.99,7.55 -5.14,11.58 -7.91,15.15 -2.33,2.99 -4.53,5.8 -5.22,9.82 -0.97,5.45 -7.73,24.43 -24.24,29.03 1.56,-2.9 3.06,-5.5 4.36,-6.72 6.35,-5.88 15.91,-23.88 6.25,-42.8 1.7,-6.4 1.43,-13.64 0.02,-20.1 -0.69,-3.19 -0.85,-5.44 -1.03,-8.3 -0.21,-3.21 -0.48,-7.12 -1.64,-13.48 4.89,-5.34 7.26,-11.81 6.83,-18.85 -0.6,-9.81 -6.24,-18.52 -11.22,-23.64 6.54,1.57 15.11,5.46 20.73,15.01zm-67.82 -30.28c5.93,-3.02 11.54,-5.88 14.6,-4.76 4.46,1.63 9.91,7.14 15.18,12.46 1.92,1.93 3.84,3.87 5.77,5.67 0.04,0.03 0.08,0.08 0.13,0.11 1.5,1.4 2.99,2.72 4.44,3.83 4.3,3.28 11.38,12.16 11.97,21.98 0.24,3.96 -0.68,7.59 -2.65,10.87 -5.47,-13.82 -21.73,-29.11 -35.89,-32.84 -13.37,-3.51 -27.87,4.18 -32.08,6.67 -2.21,-0.56 -4.53,-0.94 -6.95,-0.98 -0.07,0 -0.12,0 -0.18,0 -4.15,0 -7.92,1.72 -11.36,4.18 -0.52,-0.09 -1.16,-0.19 -1.92,-0.27 1.98,-5.99 7.06,-17.71 16.93,-18.87 8.06,-0.95 15.47,-4.72 22.01,-8.05zm35.28 85.9c0.59,-7.41 -1,-14.22 -4.81,-20.39 0.25,-4.26 0.57,-19.26 -6.59,-24.17 -7.07,-4.87 -14.3,-6.72 -19.59,-8.06 -2.26,-0.59 -4.24,-1.09 -5.6,-1.67 -1.19,-0.51 -2.54,-1.24 -4.05,-2.05 -1.58,-0.84 -3.35,-1.77 -5.24,-2.66 5.65,-2.62 14.59,-5.64 22.58,-3.55 13.43,3.55 30.32,20.46 32.86,32.93 1.54,7.6 1.82,11.73 2.06,15.38 0.19,2.99 0.35,5.58 1.16,9.21 0.51,2.33 4.13,20.96 -7.61,27.71 0.47,-7.27 -0.99,-14.95 -5.17,-22.68zm-117.01 45.67c-4.5,-5.77 -10.06,-18.75 -7.68,-28.27 2.07,-8.32 1.02,-21.16 0.41,-28.84 -0.19,-2.28 -0.38,-4.66 -0.33,-5.27 0.22,-2.93 1.89,-9.45 4.88,-12.06 3.78,-3.31 15.4,-12.53 25.41,-20.17 4.64,-3.55 10.85,-4.22 15.49,-4.13 -1.35,1.39 -2.67,2.77 -3.89,4.09 -1.52,1.63 -2.95,3.18 -4.32,4.45l-1.82 1.69c-6.88,6.31 -17.27,15.86 -15.47,28.49 0.99,6.96 3.87,10.94 7.18,14.09 -3.04,4.07 -8.02,12.76 -6.25,24.85 2.09,14.38 10.33,17.31 19.08,20.39 1.79,0.65 3.69,1.32 5.64,2.12 5.19,2.17 9.22,4.01 12.85,6.13 -5.99,4.29 -13.08,6.17 -21.19,5.53 -4.44,-0.36 -8.72,-1.42 -12.59,-2.8 -0.01,0 -0.03,0 -0.05,-0.02 -8.88,-3.16 -15.65,-8.08 -17.35,-10.27zm91.68 -63.06c-1.85,-3.05 -4.63,-5.14 -7.76,-6.04 -1.37,-1.75 -3.17,-3.15 -5.53,-4.07 -7.52,-2.95 -13.84,-0.01 -17.32,3.49 -3.7,-0.13 -11.64,1.17 -16.81,13.11 -5.9,13.58 3.39,21.65 10.17,27.55 1.06,0.92 2.09,1.8 3,2.68 4.44,4.18 11.27,6.79 17.89,6.79 4.85,0 9.6,-1.4 13.16,-4.6 5.72,-5.1 6.99,-11.59 6.79,-16.91 2.44,-2.04 6.86,-6.7 6.97,-13.74 0.1,-6.36 -4.76,-12.74 -8.66,-17.6 3.71,0.79 8.32,2.7 11.73,7.2 6.2,8.22 7.3,17.67 3.34,28.92 -4,11.39 -17.56,25.47 -29.05,26.53 -16.65,1.56 -25.57,-2.12 -27.29,-11.23 -1.56,-8.31 -6.24,-14.79 -10.38,-20.5 -3.14,-4.33 -5.85,-8.08 -6.48,-11.57 -1.51,-8.43 4.84,-16.2 19.4,-23.73 5.14,-2.65 9.88,-3.49 13.79,-3.49 3.39,0 6.15,0.63 8.02,1.22 4.75,1.51 7.24,3.86 7.58,4.5 0.74,1.43 2.09,3.1 3.79,5.21 3.2,3.97 8.04,9.96 7.98,14.45 -0.04,2.47 -0.97,4.5 -2.06,6.09 -0.13,-0.44 -0.26,-0.84 -0.37,-1.16 1.01,-4.69 0.35,-9.35 -1.9,-13.1zm-35.21 9.27c-0.88,4.36 0.1,12.35 9.48,16.83 2.67,1.29 5.64,1.93 8.63,1.93 2.73,0 5.47,-0.55 8.01,-1.61 2.52,-1.06 4.69,-2.57 6.44,-4.43 0.19,3.93 -0.66,8.68 -4.69,12.28 -5.82,5.19 -17.13,3.11 -22.61,-2.08 -1,-0.93 -2.08,-1.88 -3.22,-2.88 -7.62,-6.6 -12.32,-11.6 -8.53,-20.34 2.15,-4.97 4.76,-7.31 6.97,-8.42 -0.79,2.46 -1.24,5.49 -0.48,8.72zm22.73 -0.35c-0.76,2.33 -3.41,4.24 -6.72,4.92 -2.51,0.5 -5.87,0.24 -7.78,-1.95 -4.39,-5.07 -1.59,-10.75 -0.18,-12.96 0.85,-1.34 3.6,-4.01 7.7,-4.01 1.19,0 2.51,0.23 3.9,0.77 5.47,2.13 4.68,8.38 3.08,13.23zm5.92 1.96c0.84,-2.54 1.32,-4.92 1.47,-7.1 1.41,2.73 1.62,6.22 0.43,9.72 -1.08,3.21 -3.52,5.77 -6.86,7.17 -3.7,1.56 -8,1.49 -11.52,-0.19 -0.26,-0.13 -0.49,-0.26 -0.73,-0.39 0.76,0.11 1.51,0.21 2.3,0.21 1.14,0 2.3,-0.11 3.49,-0.35 5.56,-1.11 9.93,-4.58 11.42,-9.07zm3.43 -26.98c-2.08,-2.3 -5.74,-4.49 -10,-5.84 -4.93,-1.57 -14.98,-3.32 -26.58,2.69 -17.29,8.93 -24.7,18.88 -22.64,30.37 0.74,4.2 3.24,8.09 6.1,12.1 -0.45,-0.48 -0.9,-0.96 -1.3,-1.46 -2.17,-2.59 -4.55,-4.55 -6.64,-6.27 -4.25,-3.5 -7.63,-6.26 -8.64,-13.32 -1.34,-9.4 7.25,-17.28 13.51,-23.01l1.88 -1.75c1.48,-1.39 3.01,-3.03 4.62,-4.76 5.2,-5.58 11.09,-11.91 17.21,-11.91 0.03,0 0.06,0 0.09,0 6.55,0.08 12.49,3.26 17.26,5.82 1.69,0.9 3.22,1.7 4.54,2.26 1.81,0.79 4,1.35 6.54,2 5.09,1.28 11.42,2.91 17.58,7.13 2.3,1.59 3.44,6.57 3.83,11.69 -6.42,-5.07 -13.94,-5.74 -17.36,-5.74zm-47.83 74.84c-2.06,-0.85 -4.05,-1.56 -5.96,-2.23 -8.37,-2.98 -13.42,-4.76 -14.98,-15.43 -1.4,-9.61 2.41,-16.55 4.81,-19.86 1.63,1.36 3.27,2.78 4.74,4.54 2.42,2.91 5.41,5.61 8.29,8.23 3.95,3.6 8.44,7.67 8.84,10.38 0.05,0.39 0.17,0.76 0.35,1.08 2.86,9.56 11.54,14.43 26.05,14.43 2.3,0 4.74,-0.11 7.31,-0.35 14.37,-1.35 29.64,-17.25 34.37,-30.7 0.07,-0.22 0.12,-0.43 0.2,-0.66 6.24,21.91 -11.12,40.62 -21.93,46.9 -13.94,8.1 -21.88,3.49 -27.23,-1.45 -7.66,-7.05 -13.87,-10.3 -24.86,-14.88zm-16.5 -117.83c8.56,-5.35 17.19,-7.46 25.55,-9.48 2.54,-0.61 5.06,-1.22 7.57,-1.92 4.79,-1.33 10.04,-0.83 14.17,0.02 -4.03,1.8 -8.26,3.31 -12.52,3.81 -14.56,1.72 -20.78,18.35 -22.64,24.75 -5.38,0.13 -12.05,1.28 -17.45,5.41 -6.11,4.66 -12.81,9.9 -18.02,14.08 1.5,-10.38 10.29,-28.52 23.34,-36.67zm-59.95 8.16c3.52,-9.08 8.78,-11.71 13.84,-14.27 1.61,-0.82 3.12,-1.57 4.55,-2.52 4.18,-2.77 16.05,-1.96 23.09,1.59 3.55,1.78 5.54,4.56 7.18,8.18 -12.31,12.2 -19.49,30.98 -18.38,40.71 -0.5,0.42 -1,0.85 -1.37,1.17 -2.41,2.09 -4.03,5.19 -5.12,8.2 -0.55,0.08 -1.14,0.17 -1.64,0.24 -6.27,0.51 -11.88,1.33 -15.59,2.04 2.07,-2.11 4.24,-4.13 6.6,-5.93 1.58,-1.18 3.22,-2.27 4.9,-3.26 1.68,-0.98 3.51,-1.92 5.21,-2.56l0.1 -0.05c0.63,-0.22 0.99,-0.9 0.83,-1.57 -0.17,-0.73 -0.91,-1.16 -1.62,-0.98 -2.19,0.54 -4.1,1.28 -6.04,2.13 -1.93,0.86 -3.81,1.84 -5.63,2.9 -2.52,1.51 -4.9,3.23 -7.21,5.06 -0.21,-0.29 -0.44,-0.58 -0.66,-0.87 2.46,-4.42 5.22,-8.69 8.4,-12.68 3.67,-4.59 7.78,-8.98 12.27,-12.69l0.06 -0.07c0.55,-0.43 0.64,-1.22 0.24,-1.8 -0.42,-0.61 -1.27,-0.75 -1.86,-0.32 -5.1,3.6 -9.58,7.73 -13.79,12.23 -3.3,3.54 -6.25,7.41 -9,11.43 0.45,-2.9 1.08,-5.79 2.06,-8.62 1.25,-3.73 2.92,-7.45 4.91,-10.8l0.04 -0.06c0.35,-0.58 0.2,-1.34 -0.34,-1.75 -0.6,-0.45 -1.43,-0.34 -1.88,0.24 -2.61,3.42 -4.7,7.01 -6.51,10.85 -0.69,1.46 -1.27,3 -1.85,4.54 0.16,-8.3 0.95,-22.33 4.21,-30.71zm9.29 95.71c2.09,2.5 4.42,4.96 6.86,7.02 -2.15,2.55 -4.22,5.06 -6.2,7.5 0.24,-4.53 0.02,-9.48 -0.66,-14.52zm-3.31 -15.29c-1.38,-4.59 -3.07,-8.92 -5.01,-12.65 1.09,1.06 2.2,2.06 3.34,3.01 2.47,2.07 5,3.95 7.63,5.77 0.55,0.37 1.29,0.29 1.75,-0.19 0.52,-0.55 0.49,-1.4 -0.06,-1.92l-0.03 -0.01c-2.24,-2.09 -4.44,-4.31 -6.46,-6.58 -1.02,-1.14 -2,-2.29 -2.88,-3.48 -0.53,-0.71 -1.01,-1.45 -1.46,-2.17 0.24,-0.31 0.48,-0.6 0.69,-0.93 0.11,-0.17 0.19,-0.36 0.3,-0.52 1.43,0.39 2.88,0.85 4.33,1.38 2.28,0.84 4.55,1.74 6.79,2.72 2.7,1.16 5.37,2.39 8.04,3.66 0.19,5.6 0.1,11.46 -0.96,15.7 -1.24,5.02 -0.84,10.45 0.41,15.56 -5.68,-3.86 -12.55,-13 -16.42,-19.35zm16.05 -25.63c-2.45,-0.79 -4.93,-1.54 -7.47,-2.19 -1.81,-0.45 -3.66,-0.85 -5.56,-1.15 -0.3,-0.05 -0.63,-0.08 -0.93,-0.13 3.12,-0.58 7.89,-1.22 13.24,-1.69 0.02,0 0.03,0.02 0.03,0.02 0.12,0 0.23,-0.02 0.34,-0.02 0.07,-0.02 0.23,-0.03 0.42,-0.05 -0.1,0.6 -0.16,1.13 -0.19,1.54 -0.07,0.74 0,1.87 0.12,3.67zm-13.48 1.4c1.72,0.06 3.5,0.21 5.27,0.43 2.82,0.34 5.66,0.82 8.47,1.37 0.16,1.99 0.34,4.27 0.48,6.73 -2.02,-1.2 -4.01,-2.41 -6.07,-3.54 -2.2,-1.2 -4.44,-2.34 -6.73,-3.45 -1.13,-0.53 -2.27,-1.05 -3.44,-1.53 0.66,-0.03 1.35,-0.03 2.02,-0.01zm-8.87 -9.68c1.51,3.47 1,7.62 -1.43,11.38 -1.98,3.07 -5.82,4.87 -9.84,4.5 -3.72,-0.31 -6.76,-2.38 -8.11,-5.53 -2.07,-4.84 -1.87,-9.06 0.61,-12.18 2.09,-2.64 5.69,-4.23 9.24,-4.23 0.66,0 1.32,0.05 1.96,0.16 3.46,0.63 6.22,2.78 7.57,5.9zm-52.2 -66.89c3.63,-3.37 17.57,-0.32 24.27,1.15 1.27,0.29 2.43,0.53 3.41,0.74 8.45,1.68 13.85,21.4 15.33,33.68 -0.84,7.6 -0.98,14.95 -0.98,19.08 -0.05,0 -0.1,0 -0.15,0 -0.5,-3.4 -1.3,-6.63 -2.18,-9.81 -1.21,-4.22 -2.59,-8.32 -4.17,-12.4 -0.25,-0.63 -0.94,-1 -1.6,-0.82 -0.73,0.19 -1.14,0.93 -0.95,1.65l0 0.03c1.11,4.09 2.04,8.28 2.75,12.44 0.56,3.3 0.98,6.62 1.06,9.84 -0.31,0.11 -0.61,0.21 -0.9,0.32 -0.5,-1.53 -1.08,-2.99 -1.69,-4.44 -1.14,-2.6 -2.44,-5.08 -3.81,-7.5 -2.75,-4.87 -5.77,-9.45 -9.05,-13.95 -0.41,-0.55 -1.19,-0.71 -1.8,-0.35 -0.62,0.38 -0.82,1.22 -0.43,1.84l0.02 0.04c2.79,4.59 5.4,9.4 7.63,14.27 1.91,4.19 3.6,8.56 4.42,12.8 -0.39,0.33 -0.79,0.63 -1.14,0.97 -5.21,-3.38 -10.06,-8 -14.43,-12.76l-0.04 -0.03c-0.45,-0.5 -1.2,-0.6 -1.76,-0.2 -0.61,0.42 -0.76,1.27 -0.33,1.87 2.22,3.18 4.6,6.19 7.17,9.09 1.43,1.6 2.91,3.14 4.5,4.62 -25.61,-5.39 -32.62,-21.09 -36.9,-30.68 -0.8,-1.8 -1.51,-3.39 -2.21,-4.71 -3.48,-6.41 7.55,-20.83 13.96,-26.78zm4.85 86.56c0.37,0.65 1.19,0.89 1.84,0.52l0.05 -0.03c3.29,-1.85 6.82,-3.43 10.39,-4.75 -3.34,2.46 -7.04,5.71 -10.57,9.82 0,0 -0.02,0.02 -0.03,0.02 -5,6.17 -12.43,8.07 -17.78,8.58 -9.22,0.85 -16.83,-1.73 -18.16,-2.86 -3.69,-3.13 -7.45,-10.93 -9.83,-20.33 -1.69,-6.72 5.4,-12.76 12.26,-18.59 1.22,-1.06 2.42,-2.08 3.55,-3.09 4.45,-4 17.47,-0.29 24.69,3.01 4.48,3.16 10.01,5.96 16.92,7.98 -1.4,-0.01 -2.8,-0.06 -4.16,-0.03 -4.91,0.11 -9.74,0.37 -14.6,0.77 -0.67,0.07 -1.23,0.65 -1.23,1.35 0,0.74 0.61,1.34 1.35,1.34 4.78,0.06 9.61,0.25 14.36,0.61 1.77,0.14 3.52,0.33 5.27,0.54 -0.17,0.05 -0.33,0.1 -0.51,0.15 -3.04,0.85 -6.03,1.78 -8.98,2.76 -5.9,2 -11.72,4.13 -17.52,6.42 -0.64,0.27 -1,0.99 -0.79,1.67 0.24,0.7 1,1.09 1.7,0.86 5.87,-1.83 11.82,-3.52 17.76,-5.04 2.98,-0.74 5.95,-1.45 8.92,-2.04 0.77,-0.15 1.56,-0.29 2.33,-0.42 -1.96,0.72 -3.85,1.54 -5.72,2.44 -3.9,1.9 -7.57,4.05 -11.12,6.59 -0.55,0.4 -0.72,1.16 -0.39,1.75zm-23.64 26.66c-19.51,-2.61 -38.12,-9.33 -46.97,-12.87 5.83,-1.09 15.14,-2.3 23.03,-0.75 8.36,1.6 18.3,8.96 23.94,13.62zm-44.93 -53.88c-0.19,-3.46 -0.71,-10.37 -2.12,-19.06 1.77,2.33 5.54,4.1 10.46,4.85 1.06,0.16 2.11,0.23 3.12,0.23 4.39,0 8.11,-1.32 10.14,-2.2 1.86,2.71 4.15,5.67 6.83,8.74 -1.42,-0.44 -2.91,-0.84 -4.37,-1.1 -7.38,-1.28 -11.8,-0.14 -13.53,3.43 -0.73,1.51 -0.65,3.1 0.22,4.5 1.67,2.7 6.11,4.35 11.88,4.45 0.09,0 0.21,0 0.32,0 0.11,0 0.21,-0.02 0.32,-0.02 -0.75,0.89 -1.45,1.8 -2.06,2.74 -7.12,-2.03 -14.17,-4.23 -21.21,-6.56zm-27.72 -93.52c0.42,-1.24 1.93,-1.65 3.79,-1.65 2.67,0 6.11,0.85 8.2,1.36 0.62,0.16 1.2,0.31 1.7,0.4 2.43,0.57 4.26,0.05 5.88,-0.41 2.01,-0.57 3.92,-1.1 7.86,0.09 2.7,0.82 5.5,7.75 7.47,15.93 -2.42,-2.57 -4.91,-4.98 -7.57,-7.31 -0.49,-0.44 -1.25,-0.45 -1.76,0 -0.57,0.48 -0.61,1.33 -0.13,1.89l0.01 0.03c2.32,2.64 4.57,5.42 6.59,8.27 0.36,0.49 0.69,0.99 1.03,1.49 -4.77,-2.94 -9.4,-6.15 -13.74,-9.63l-0.05 -0.04c-0.56,-0.44 -1.36,-0.37 -1.85,0.16 -0.49,0.56 -0.45,1.39 0.12,1.89 4.54,4.04 9.33,7.73 14.35,11.12 -0.93,-0.12 -1.87,-0.3 -2.8,-0.51 -3.5,-0.77 -7.05,-1.91 -10.44,-3.25l-0.05 -0.01c-0.61,-0.26 -1.34,0 -1.67,0.61 -0.36,0.64 -0.12,1.46 0.54,1.81 2.77,1.51 5.61,2.82 8.55,3.96 -3.55,0.45 -7.34,0.67 -10.72,0.25 -4.09,-0.48 -4.79,-2.18 -7.41,-10.15l-0.88 -2.65c-0.98,-2.91 -2.75,-5.21 -4.31,-7.24 -2.41,-3.13 -3.32,-4.59 -2.71,-6.41zm14.67 31.87c1.48,0.19 3.02,0.26 4.56,0.26 8.54,0 17.51,-2.3 20.29,-3.07 0.32,0.01 0.62,-0.02 0.93,-0.11 7.33,4.11 15.25,7.53 23.99,8.77 2.49,4.16 5.24,8.16 8.07,12.1 -2.04,4.89 -2.8,9.92 -0.52,14.11 0.65,1.19 1.27,2.64 2.01,4.28 1.8,4.05 4.21,9.45 8.35,14.85 -3.32,-0.73 -6.87,-1.16 -10.16,-0.87 0.27,-0.74 0.53,-1.5 0.72,-2.3 1.35,-5.61 0.85,-10.32 -1.33,-12.6 -1.14,-1.19 -2.67,-1.67 -4.31,-1.33 -3.89,0.77 -6.07,4.77 -6.7,12.23 -0.19,2.47 -0.05,5.09 0.19,7.36 -3.29,-3.59 -5.96,-7.03 -8.13,-10.16 2.23,-1.67 6.11,-5.14 8.15,-10.35 2.09,-5.38 2.23,-10.11 0.37,-12.68 -0.97,-1.33 -2.41,-1.94 -4.08,-1.9 -3.96,0.23 -6.67,3.91 -8.28,11.22 -0.45,2.04 -0.66,4.2 -0.76,6.19 -1.89,-3.52 -2.89,-6.03 -3.19,-6.9 0.2,-1.94 0.93,-10.02 -0.62,-16.08 -1.33,-5.26 -4.17,-9.64 -7.4,-11.45 -1.72,-0.94 -3.52,-1.15 -5.19,-0.61 -1.88,0.6 -3.28,1.9 -4.04,3.75 -1.43,3.42 -0.56,8.53 2.41,14.4 3.46,6.78 9.37,10.41 11.38,11.52 0.42,1.16 1.42,3.65 3.21,7.04 -1.7,-0.87 -3.56,-1.7 -5.43,-2.3 -7.15,-2.25 -11.68,-1.73 -13.87,1.58 -0.21,0.32 -0.37,0.66 -0.5,0.99 -1.7,-9.16 -4.37,-19.73 -8.55,-30.1 -1.12,-2.83 -2.49,-5.61 -4.01,-8.32 0.74,0.21 1.54,0.38 2.44,0.48zm-26.48 30.44c-8.17,-15.94 -7.98,-48.37 -7.56,-61.18 7.59,7 23.93,23.4 30.81,40.51 7.31,18.21 9.87,37.53 10.75,47.52 -1.77,-1.94 -3.45,-3.97 -4.98,-6.12 -2.91,-4.05 -5.61,-8.28 -7.87,-12.76 -2.32,-4.47 -4.36,-9.06 -6.11,-13.8 -1.75,-4.73 -3.28,-9.6 -4.37,-14.45l0 -0.07c-0.16,-0.66 -0.81,-1.09 -1.48,-0.96 -0.69,0.11 -1.16,0.79 -1.03,1.48 0.93,5.16 2.25,10.11 3.84,15.06 1.59,4.91 3.49,9.73 5.67,14.44 2.16,4.74 4.76,9.28 7.64,13.65 0.51,0.79 1.06,1.54 1.59,2.3 -8.92,-5.24 -20.93,-13.97 -26.9,-25.62zm-65.03 -30.84c-11.41,-20.4 -15.57,-46.21 -17.56,-58.61 -0.16,-0.98 -0.29,-1.83 -0.42,-2.59 9.72,6.11 33.14,23.38 43.05,39.86 9.84,16.36 13.86,43.9 15.24,56.68 -2.48,-2.49 -4.89,-5.06 -7.07,-7.83 -3.72,-4.53 -7.12,-9.32 -10.18,-14.33 -3.07,-5.02 -5.88,-10.21 -8.34,-15.56 -2.46,-5.35 -4.66,-10.9 -6.36,-16.46l-0.02 -0.06c-0.21,-0.66 -0.88,-1.03 -1.56,-0.85 -0.67,0.17 -1.07,0.86 -0.9,1.56 1.56,5.88 3.59,11.52 5.9,17.1 2.3,5.56 4.98,10.97 7.96,16.23 2.92,5.27 6.27,10.35 9.95,15.17 0.38,0.55 0.82,1.06 1.23,1.59 -9.78,-6.51 -22.63,-17.1 -30.92,-31.9zm1.85 71.61c-19.08,3.94 -46.19,0.26 -56.39,-1.4 4.87,-6.01 17.27,-18.86 38.02,-24.42 16.49,-4.44 37.09,-2.83 51.22,-0.78 -6.03,1 -12.01,2.25 -17.92,3.72 -11.43,2.84 -22.64,6.31 -33.64,10.57 -0.64,0.26 -0.98,0.96 -0.75,1.61 0.24,0.67 0.96,1.03 1.62,0.8l0.05 -0.02c10.94,-3.77 22.24,-6.81 33.59,-9.19 8.18,-1.7 16.45,-2.99 24.73,-3.73 -0.72,0.58 -1.48,1.18 -2.28,1.82 -8.82,7.06 -22.18,17.71 -38.25,21.02zm60.09 5.35c11.39,-5.75 23.35,-7.41 33.3,-7.41 3.73,0 7.15,0.25 10.17,0.58 -4.22,1.16 -8.39,2.57 -12.42,4.23 -4.08,1.65 -8.08,3.52 -11.96,5.61 -3.87,2.09 -7.62,4.32 -11.25,6.91 -0.54,0.38 -0.71,1.14 -0.35,1.72 0.38,0.59 1.17,0.79 1.77,0.4l0.05 -0.03c7.18,-4.52 15.07,-8.18 23.1,-10.98 4.04,-1.43 8.14,-2.6 12.28,-3.5 2.12,-0.5 4.26,-0.89 6.42,-1.19 -5.21,6.19 -16.17,17.45 -33.95,27.69 -17.92,10.33 -40.62,12.21 -49.24,12.55 2.73,-7.51 11.35,-26.12 32.08,-36.58zm29.63 55.24c-8.29,-2.56 -15.89,-8.31 -21.14,-13.05 9.59,4.16 25.34,10.22 42.05,13.43 -5.03,1.31 -12.53,2.19 -20.91,-0.38zm-23.68 -18.29c5.88,-0.8 15.25,-1.54 23.04,0.38 8.26,2.03 17.84,9.87 23.24,14.81 -19.35,-3.59 -37.61,-11.22 -46.28,-15.19zm29.52 43.38c3.45,-7.78 12.84,-15.85 18.64,-20.32 -6.91,18.44 -17.61,35.08 -23.05,42.93 0.25,-5.93 1.16,-15.27 4.41,-22.61zm17.76 2.47c-3.97,7.73 -10.96,14.21 -16.56,18.56 5.79,-8.74 14.52,-23.19 20.59,-39.1 0.4,5.16 -0.02,12.73 -4.03,20.54zm5.11 -30.05c-3.54,-3.55 -16.81,-16.2 -28.46,-19.08 -5.97,-1.46 -12.62,-1.51 -18.2,-1.11 2.74,-1.19 5.45,-2.52 8.07,-4.03 22.2,-12.79 34.04,-26.89 37.93,-32.06 1.12,0.35 2.26,0.72 3.41,1.06 -0.6,2.28 -0.68,4.71 -0.04,7.28 1.8,7.13 4.36,13.37 7.24,17.95 -1.34,-0.47 -2.66,-0.85 -3.96,-1.11 -13.35,-2.59 -29.73,1.9 -30.42,2.09 -0.03,0 -0.03,0.02 -0.05,0.02 -0.29,0.09 -0.54,0.22 -0.75,0.43 -0.04,0.05 -0.05,0.08 -0.08,0.13 -0.13,0.13 -0.26,0.27 -0.33,0.45 -0.03,0.05 -0.03,0.09 -0.04,0.16 -0.02,0.03 -0.05,0.06 -0.07,0.1 -0.01,0.06 0.02,0.11 0,0.17 -0.03,0.21 -0.05,0.4 -0.01,0.61 0.01,0.08 0.01,0.16 0.04,0.24 0.08,0.29 0.2,0.55 0.41,0.76 0.59,0.66 14.67,15.83 31.19,20.02 2.09,0.53 4.11,0.87 6.06,1.06 -4.24,1.66 -8.21,3.28 -11.94,4.86zm23.32 -9.13c-4.55,0.87 -10.24,1.17 -16.51,-0.42 -8.4,-2.15 -16.29,-7.52 -21.77,-11.99 9.61,3.62 25.19,8.75 41.68,11.19 -1.15,0.4 -2.28,0.8 -3.4,1.22zm-9.44 24.33c3.06,-7.94 12.04,-16.46 17.6,-21.2 -5.96,18.76 -15.83,35.91 -20.88,44 -0.04,-5.93 0.41,-15.31 3.28,-22.8zm17.84 1.61c-3.57,7.9 -10.24,14.73 -15.6,19.35 5.35,-9 13.34,-23.88 18.62,-40.07 0.66,5.14 0.61,12.71 -3.02,20.72zm3.75 -30.17c-1.39,-1.27 -4.46,-3.95 -8.36,-6.88 1.88,0.23 3.87,0.36 5.93,0.36 1.41,0 2.86,-0.05 4.29,-0.2 3.07,-0.28 5.93,-0.91 8.6,-1.8 -1.01,1.98 -1.9,3.99 -2.72,6.02 -2.63,0.83 -5.24,1.65 -7.74,2.5zm35.71 29.54c-7.94,-3.25 -15.9,-0.05 -22.12,-3.23 -1.69,-0.87 -2.81,-2.47 -3.45,-4.9 -2.06,-7.92 1.93,-21.94 9.48,-33.33 7.38,-11.12 17.15,-16.99 21.6,-19.24 0.19,0.29 0.38,0.58 0.59,0.85 -1.65,2.06 -3.07,4.21 -4.4,6.38 -1.83,3.09 -3.46,6.19 -4.92,9.45 -0.27,0.6 -0.06,1.32 0.5,1.69 0.63,0.4 1.46,0.21 1.86,-0.42l0.04 -0.05c3.15,-4.95 6.75,-9.86 10.84,-13.7 0.76,0.45 1.56,0.85 2.4,1.18 -0.27,3.43 -1.01,7 -1.9,10.48 -1.14,4.36 -2.52,8.73 -4.1,12.97l-0.01 0.03c-0.24,0.65 0.05,1.37 0.67,1.68 0.66,0.32 1.47,0.04 1.8,-0.62 2.06,-4.21 3.89,-8.45 5.51,-12.85 1.24,-3.39 2.37,-6.85 3.09,-10.56 0.43,0.03 0.85,0.06 1.29,0.06 0.03,0 0.08,-0.01 0.11,-0.01 0.37,2.02 0.63,4.1 0.63,6.23 0.03,3.09 -0.26,6.29 -0.86,9.29l-0.01 0.08c-0.13,0.65 0.22,1.3 0.87,1.53 0.7,0.24 1.47,-0.13 1.72,-0.82 1.12,-3.23 1.88,-6.44 2.34,-9.8 0.27,-1.96 0.4,-3.97 0.39,-6.01 6.81,11.97 10.85,32.59 8.58,45.75 -0.48,2.84 -1.29,5.11 -2.3,6.81 -0.43,0.58 -0.88,1.16 -1.3,1.74 -0.24,0.23 -0.45,0.5 -0.69,0.67 -9.26,6.5 -20.04,2.05 -27.18,-0.9l-1.07 -0.43zm9.24 9.87c2.58,0.64 5.35,1.07 8.19,1.07 1.38,0 2.8,-0.11 4.21,-0.33 -7.63,10.7 -12.97,19.25 -16.31,24.97 -0.13,-6.31 0.53,-15.49 3.91,-25.71zm-0.44 30.97c3.63,-6.42 10.88,-18.34 22.65,-34.15 0.12,-0.1 0.25,-0.16 0.38,-0.24 2.2,-1.55 3.92,-3.93 5.18,-7.08 3.93,-5.07 8.31,-10.47 13.11,-16.18 1.42,0.79 2.83,1.33 4.23,1.61 1.77,4.21 3.9,7.81 5.8,10.24 0.5,0.64 1.24,1.36 2.1,2.13 -2.92,5.45 -6.55,11.22 -11.21,17.29 -12.76,16.61 -32.5,23.74 -42.24,26.38zm53.62 31.14c-5.65,-9.9 -13.97,-29.1 -9.07,-50.16 0.15,-0.67 0.32,-1.3 0.48,-1.94 0.57,-0.67 1.14,-1.3 1.67,-1.99 4.65,-6.04 8.31,-11.8 11.32,-17.26 1.88,1.25 4.06,2.49 6.46,3.68 -7.14,28.67 -9.88,54.69 -10.86,67.67zm5.57 0.9c0.92,-12.42 3.55,-37.99 10.51,-66.26 0.24,0.1 0.48,0.2 0.73,0.29 1.46,2.64 5.59,9.37 12.71,15.33 -5.18,24.77 -17.05,42.21 -23.95,50.64zm116.08 -65.66c-3.39,6.3 -7.21,13.43 -12.81,16 -5.33,2.46 -10.12,1.64 -15.2,0.76 -3.53,-0.6 -7.2,-1.24 -10.85,-0.55 -2.42,0.47 -4.18,1.21 -5.72,1.83 -3.69,1.55 -7.5,3.12 -23.64,1.1 -13.43,-1.69 -22.45,-10.43 -27.3,-16.73 1.97,0.4 3.98,0.7 6.01,0.86 1.23,0.1 2.44,0.15 3.65,0.15 8.96,0 16.85,-2.78 23.51,-8.24 1.56,1.17 3.1,2.45 4.71,3.93 5.44,5.03 11.28,7.54 17.61,7.54 5.29,0 10.93,-1.77 16.97,-5.27 10.74,-6.24 21.6,-18.47 25.14,-33.12 5.12,-1.66 8.8,-4.63 11.33,-8.39 4.78,15.1 -3.99,27.58 -7.04,30.4 -2.29,2.13 -4.18,5.64 -6.37,9.73zm9.5 13.05c-0.37,-2 -0.67,-3.89 -0.93,-5.76 5.77,-1.76 10.62,-4.99 14.57,-8.88 7.14,28.68 9.81,54.7 10.74,67.27 -7.09,-8.65 -19.43,-26.73 -24.38,-52.63zm29.96 51.71c-1.03,-13.56 -3.97,-41.35 -11.83,-71.51 1.56,-2.08 2.91,-4.21 4.06,-6.35 3.43,7.29 8.14,15.27 14.68,23.77 0.53,0.71 1.11,1.33 1.67,1.99 0.16,0.64 0.32,1.27 0.48,1.94 4.89,21.04 -3.44,40.26 -9.06,50.16zm11.38 -57.52c-7.66,-9.96 -12.7,-19.17 -16,-27.28 0.23,-0.63 0.45,-1.24 0.65,-1.82 0.58,0 1.17,0.02 1.8,0.02 2.59,0 5.54,-0.1 8.96,-0.34 1.8,-0.13 3.65,-0.82 5.49,-1.85 4.82,5.72 9.19,11.15 13.14,16.25 1.25,3.12 2.97,5.46 5.16,7.01 0.11,0.06 0.22,0.12 0.34,0.2 11.76,15.82 19.06,27.77 22.69,34.2 -9.74,-2.63 -29.46,-9.75 -42.23,-26.39zm45.7 21.12c-3.34,-5.72 -8.69,-14.27 -16.33,-24.97 1.42,0.22 2.83,0.33 4.21,0.33 2.85,0 5.61,-0.43 8.2,-1.07 3.36,10.2 4.05,19.4 3.92,25.71zm30.89 -43.71c-0.63,2.43 -1.77,4.03 -3.46,4.9 -6.2,3.18 -14.15,-0.02 -22.09,3.23l-1.08 0.43c-7.14,2.95 -17.92,7.4 -27.19,0.9 -0.26,-0.19 -0.5,-0.49 -0.74,-0.75 -0.4,-0.51 -0.8,-1.03 -1.19,-1.56 -1.03,-1.7 -1.86,-4 -2.36,-6.91 -2.27,-13.16 1.76,-33.78 8.59,-45.75 -0.01,2.04 0.12,4.05 0.39,6.01 0.47,3.36 1.21,6.57 2.35,9.8 0.21,0.61 0.86,1 1.52,0.87 0.73,-0.15 1.21,-0.85 1.06,-1.58l-0.01 -0.08c-0.6,-3 -0.89,-6.2 -0.87,-9.29 0.02,-2.13 0.27,-4.21 0.64,-6.22 0.04,0 0.07,0 0.12,0 0.41,0 0.85,-0.03 1.27,-0.04 0.72,3.69 1.86,7.15 3.08,10.55 1.62,4.39 3.47,8.63 5.53,12.84 0.3,0.62 1.03,0.9 1.67,0.66 0.71,-0.25 1.06,-1.03 0.8,-1.72l-0.01 -0.03c-1.58,-4.24 -2.97,-8.61 -4.1,-12.97 -0.88,-3.48 -1.62,-7.05 -1.91,-10.48 0.85,-0.33 1.64,-0.73 2.39,-1.18 4.12,3.84 7.72,8.75 10.87,13.7l0.03 0.05c0.35,0.56 1.06,0.79 1.69,0.52 0.67,-0.31 0.98,-1.11 0.67,-1.79 -1.48,-3.26 -3.1,-6.36 -4.93,-9.45 -1.32,-2.17 -2.74,-4.32 -4.41,-6.38 0.23,-0.27 0.42,-0.56 0.61,-0.85 4.44,2.22 14.19,8.07 21.6,19.24 7.56,11.39 11.54,25.41 9.47,33.33zm10.16 -21.41c-2.51,-0.83 -5.11,-1.67 -7.75,-2.5 -0.82,-2.01 -1.7,-4.04 -2.73,-6.02 2.67,0.89 5.53,1.52 8.6,1.8 1.44,0.15 2.89,0.2 4.3,0.2 2.04,0 4.04,-0.13 5.93,-0.36 -3.92,2.93 -6.97,5.61 -8.35,6.88zm3.72 30.17c-3.59,-7.97 -3.66,-15.54 -3,-20.7 5.29,16.18 13.27,31.05 18.63,40.05 -5.39,-4.62 -12.04,-11.45 -15.63,-19.35zm17.86 -1.61c2.88,7.49 3.33,16.87 3.28,22.82 -5.05,-8.11 -14.92,-25.26 -20.89,-44.02 5.57,4.74 14.56,13.26 17.61,21.2zm-9.45 -24.33c-1.13,-0.42 -2.25,-0.82 -3.39,-1.22 16.49,-2.44 32.08,-7.57 41.69,-11.19 -5.5,4.47 -13.37,9.84 -21.78,11.99 -6.28,1.59 -11.96,1.29 -16.52,0.42zm28.45 39.18c-4.01,-7.78 -4.44,-15.33 -4.04,-20.51 6.09,15.9 14.8,30.35 20.59,39.07 -5.59,-4.35 -12.58,-10.83 -16.55,-18.56zm17.74 -2.47c3.24,7.32 4.16,16.68 4.4,22.61 -5.43,-7.85 -16.13,-24.49 -23.03,-42.93 5.79,4.45 15.19,12.52 18.63,20.32zm5.85 -25.09c-8.38,2.57 -15.9,1.69 -20.91,0.38 16.71,-3.21 32.45,-9.27 42.06,-13.43 -5.26,4.74 -12.88,10.49 -21.15,13.05zm-22.6 -3.1c5.4,-4.94 14.96,-12.78 23.24,-14.81 7.79,-1.92 17.16,-1.18 23.03,-0.38 -8.66,3.97 -26.92,11.6 -46.27,15.19zm22.34 -18.47c-11.65,2.88 -24.91,15.53 -28.46,19.08 -3.71,-1.58 -7.7,-3.2 -11.94,-4.86 1.96,-0.19 3.97,-0.53 6.07,-1.06 16.52,-4.19 30.6,-19.36 31.2,-20.02 0.19,-0.21 0.32,-0.47 0.4,-0.76 0.01,-0.08 0.03,-0.14 0.03,-0.24 0.03,-0.19 0.03,-0.4 -0.02,-0.61 0,-0.06 0.02,-0.11 0,-0.17 0,-0.04 -0.04,-0.07 -0.04,-0.1 -0.04,-0.05 -0.02,-0.11 -0.05,-0.16 -0.08,-0.18 -0.19,-0.31 -0.32,-0.45 -0.04,-0.03 -0.05,-0.08 -0.08,-0.13 -0.23,-0.19 -0.49,-0.34 -0.76,-0.43 -0.02,0 -0.03,-0.02 -0.05,-0.02 -0.69,-0.19 -17.08,-4.68 -30.42,-2.09 -1.3,0.26 -2.63,0.64 -3.97,1.11 2.89,-4.58 5.45,-10.82 7.25,-17.95 0.64,-2.57 0.56,-5 -0.03,-7.28 1.14,-0.36 2.26,-0.71 3.4,-1.06 3.88,5.17 15.74,19.27 37.92,32.06 2.63,1.51 5.33,2.84 8.06,4.03 -5.56,-0.4 -12.21,-0.35 -18.19,1.11zm29.89 -33.67c20.73,10.46 29.33,29.07 32.08,36.58 -8.61,-0.34 -31.32,-2.22 -49.24,-12.55 -17.78,-10.24 -28.74,-21.5 -33.94,-27.69 2.13,0.3 4.29,0.69 6.41,1.19 4.15,0.9 8.24,2.07 12.26,3.5 8.05,2.8 15.93,6.46 23.11,10.98l0.07 0.03c0.56,0.35 1.31,0.22 1.71,-0.34 0.41,-0.58 0.28,-1.36 -0.3,-1.78 -3.65,-2.59 -7.38,-4.82 -11.27,-6.91 -3.87,-2.09 -7.85,-3.96 -11.94,-5.61 -4.05,-1.66 -8.21,-3.07 -12.45,-4.23 11.09,-1.22 27.82,-1.09 43.5,6.83zm-12.23 -67.43c-0.69,-0.15 -1.36,0.29 -1.52,0.98l-0.02 0.05c-1.09,4.85 -2.62,9.72 -4.36,14.45 -1.75,4.72 -3.8,9.33 -6.1,13.8 -2.28,4.48 -4.97,8.71 -7.88,12.76 -1.54,2.15 -3.21,4.18 -4.98,6.12 0.88,-10.01 3.42,-29.31 10.75,-47.52 6.88,-17.11 23.21,-33.51 30.79,-40.51 0.44,12.81 0.61,45.24 -7.55,61.18 -5.96,11.65 -17.97,20.38 -26.9,25.62 0.54,-0.76 1.09,-1.51 1.61,-2.3 2.87,-4.37 5.48,-8.91 7.63,-13.65 2.18,-4.71 4.08,-9.53 5.67,-14.44 1.58,-4.95 2.91,-9.9 3.84,-15.06 0.12,-0.68 -0.3,-1.32 -0.98,-1.48zm90.69 36.26c20.73,5.56 33.14,18.41 38.01,24.42 -10.21,1.66 -37.3,5.32 -56.38,1.4 -16.09,-3.31 -29.42,-13.96 -38.26,-21.02 -0.81,-0.64 -1.55,-1.24 -2.29,-1.82 8.3,0.74 16.56,2.03 24.75,3.73 11.35,2.38 22.65,5.42 33.59,9.19l0.03 0.02c0.66,0.21 1.37,-0.11 1.61,-0.75 0.26,-0.66 -0.06,-1.4 -0.72,-1.66 -10.99,-4.26 -22.21,-7.73 -33.65,-10.57 -5.9,-1.47 -11.88,-2.72 -17.92,-3.72 14.14,-2.05 34.74,-3.66 51.23,0.78zm-47.44 -13.89c0.42,-0.53 0.83,-1.04 1.24,-1.59 3.68,-4.82 7,-9.9 9.94,-15.17 2.98,-5.26 5.65,-10.67 7.96,-16.23 2.31,-5.58 4.32,-11.22 5.9,-17.1 0.16,-0.66 -0.21,-1.35 -0.87,-1.56 -0.67,-0.2 -1.38,0.17 -1.59,0.85l-0.02 0.06c-1.7,5.56 -3.9,11.11 -6.36,16.44 -2.46,5.37 -5.27,10.56 -8.34,15.58 -3.06,5.01 -6.48,9.8 -10.18,14.32 -2.18,2.78 -4.59,5.35 -7.07,7.84 1.39,-12.78 5.4,-40.32 15.24,-56.68 9.91,-16.48 33.33,-33.75 43.05,-39.86 -0.13,0.76 -0.27,1.61 -0.41,2.59 -2.01,12.4 -6.18,38.21 -17.59,58.61 -8.27,14.8 -21.11,25.39 -30.9,31.9zm108.11 -43.12c-14.61,12.63 -39.87,19.32 -54.76,22.32 2.11,-1.36 4.2,-2.74 6.26,-4.16 18.88,-13.05 36.64,-27.5 53.5,-43.02 0.69,-0.63 0.74,-1.7 0.11,-2.4 -0.63,-0.69 -1.7,-0.75 -2.4,-0.12l-0.03 0.03c-16.87,15.15 -34.77,29.33 -53.59,41.96 -3.19,2.18 -6.46,4.26 -9.74,6.27 5.8,-11.75 18.99,-35.49 37.35,-50.69 16.47,-13.64 51.86,-20.11 65.65,-21.94 -7.09,10.48 -24.95,36.69 -42.35,51.75z"/>
    </g>
   </g>
   <polygon class="fil1" points="0,325.02 925.69,325.02 925.69,0 0,0 "/>
  </g>
 </g>
</svg>
